<mxfile host="app.diagrams.net" modified="2022-08-08T13:18:41.264Z" agent="5.0 (Macintosh; Intel Mac OS X 10_15_7) AppleWebKit/537.36 (KHTML, like Gecko) Chrome/103.0.0.0 Safari/537.36" etag="6twTIbKokyfOBkquILHb" version="20.2.2" type="github">
  <diagram id="tF2jd-LfngZjUC_qMQAw" name="Page-1">
    <mxGraphModel dx="1577" dy="840" grid="1" gridSize="10" guides="1" tooltips="1" connect="1" arrows="1" fold="1" page="1" pageScale="1" pageWidth="827" pageHeight="1169" math="0" shadow="0">
      <root>
        <mxCell id="0" />
        <mxCell id="1" parent="0" />
        <mxCell id="8Fdjfd8cLt4ZwxGpMuiX-2" value="a" style="text;html=1;strokeColor=#d6b656;fillColor=#fff2cc;align=center;verticalAlign=middle;whiteSpace=wrap;rounded=0;sketch=1;fontFamily=Comic Sans MS;fontSize=18;" vertex="1" parent="1">
          <mxGeometry x="120" y="120" width="40" height="40" as="geometry" />
        </mxCell>
        <mxCell id="8Fdjfd8cLt4ZwxGpMuiX-3" value="b" style="text;html=1;strokeColor=#d6b656;fillColor=#fff2cc;align=center;verticalAlign=middle;whiteSpace=wrap;rounded=0;sketch=1;fontFamily=Comic Sans MS;fontSize=18;" vertex="1" parent="1">
          <mxGeometry x="200" y="120" width="40" height="40" as="geometry" />
        </mxCell>
        <mxCell id="8Fdjfd8cLt4ZwxGpMuiX-4" value="c" style="text;html=1;strokeColor=#d6b656;fillColor=#fff2cc;align=center;verticalAlign=middle;whiteSpace=wrap;rounded=0;sketch=1;fontFamily=Comic Sans MS;fontSize=18;" vertex="1" parent="1">
          <mxGeometry x="280" y="120" width="40" height="40" as="geometry" />
        </mxCell>
        <mxCell id="8Fdjfd8cLt4ZwxGpMuiX-5" value="c" style="text;html=1;strokeColor=#d6b656;fillColor=#fff2cc;align=center;verticalAlign=middle;whiteSpace=wrap;rounded=0;sketch=1;fontFamily=Comic Sans MS;fontSize=18;" vertex="1" parent="1">
          <mxGeometry x="360" y="120" width="40" height="40" as="geometry" />
        </mxCell>
        <mxCell id="8Fdjfd8cLt4ZwxGpMuiX-6" value="b" style="text;html=1;strokeColor=#d6b656;fillColor=#fff2cc;align=center;verticalAlign=middle;whiteSpace=wrap;rounded=0;sketch=1;fontFamily=Comic Sans MS;fontSize=18;" vertex="1" parent="1">
          <mxGeometry x="440" y="120" width="40" height="40" as="geometry" />
        </mxCell>
        <mxCell id="8Fdjfd8cLt4ZwxGpMuiX-7" value="a" style="text;html=1;strokeColor=#d6b656;fillColor=#fff2cc;align=center;verticalAlign=middle;whiteSpace=wrap;rounded=0;sketch=1;fontFamily=Comic Sans MS;fontSize=18;" vertex="1" parent="1">
          <mxGeometry x="520" y="120" width="40" height="40" as="geometry" />
        </mxCell>
        <mxCell id="8Fdjfd8cLt4ZwxGpMuiX-9" value="" style="shape=flexArrow;endArrow=classic;html=1;rounded=0;fontFamily=Comic Sans MS;fontSize=18;shadow=0;sketch=1;fillColor=#dae8fc;strokeColor=#6c8ebf;endWidth=11.875;endSize=5;" edge="1" parent="1">
          <mxGeometry width="50" height="50" relative="1" as="geometry">
            <mxPoint x="153" y="220" as="sourcePoint" />
            <mxPoint x="153" y="180" as="targetPoint" />
          </mxGeometry>
        </mxCell>
        <mxCell id="8Fdjfd8cLt4ZwxGpMuiX-11" value="R" style="edgeLabel;html=1;align=center;verticalAlign=middle;resizable=0;points=[];fontSize=12;fontFamily=Comic Sans MS;" vertex="1" connectable="0" parent="8Fdjfd8cLt4ZwxGpMuiX-9">
          <mxGeometry x="0.386" y="-1" relative="1" as="geometry">
            <mxPoint as="offset" />
          </mxGeometry>
        </mxCell>
        <mxCell id="8Fdjfd8cLt4ZwxGpMuiX-12" value="" style="shape=flexArrow;endArrow=classic;html=1;rounded=0;fontFamily=Comic Sans MS;fontSize=18;shadow=0;sketch=1;fillColor=#dae8fc;strokeColor=#6c8ebf;endWidth=11.875;endSize=5;" edge="1" parent="1">
          <mxGeometry width="50" height="50" relative="1" as="geometry">
            <mxPoint x="125" y="220" as="sourcePoint" />
            <mxPoint x="125" y="180" as="targetPoint" />
          </mxGeometry>
        </mxCell>
        <mxCell id="8Fdjfd8cLt4ZwxGpMuiX-13" value="L" style="edgeLabel;html=1;align=center;verticalAlign=middle;resizable=0;points=[];fontSize=12;fontFamily=Comic Sans MS;" vertex="1" connectable="0" parent="8Fdjfd8cLt4ZwxGpMuiX-12">
          <mxGeometry x="0.386" y="-1" relative="1" as="geometry">
            <mxPoint as="offset" />
          </mxGeometry>
        </mxCell>
        <mxCell id="8Fdjfd8cLt4ZwxGpMuiX-14" value="" style="shape=table;html=1;whiteSpace=wrap;startSize=0;container=1;collapsible=0;childLayout=tableLayout;sketch=1;fontFamily=Comic Sans MS;fontSize=12;" vertex="1" parent="1">
          <mxGeometry x="640" y="40" width="180" height="240" as="geometry" />
        </mxCell>
        <mxCell id="8Fdjfd8cLt4ZwxGpMuiX-15" value="" style="shape=tableRow;horizontal=0;startSize=0;swimlaneHead=0;swimlaneBody=0;top=0;left=0;bottom=0;right=0;collapsible=0;dropTarget=0;fillColor=none;points=[[0,0.5],[1,0.5]];portConstraint=eastwest;sketch=1;fontFamily=Comic Sans MS;fontSize=12;" vertex="1" parent="8Fdjfd8cLt4ZwxGpMuiX-14">
          <mxGeometry width="180" height="40" as="geometry" />
        </mxCell>
        <mxCell id="8Fdjfd8cLt4ZwxGpMuiX-16" value="a" style="shape=partialRectangle;html=1;whiteSpace=wrap;connectable=0;fillColor=none;top=0;left=0;bottom=0;right=0;overflow=hidden;sketch=1;fontFamily=Comic Sans MS;fontSize=12;" vertex="1" parent="8Fdjfd8cLt4ZwxGpMuiX-15">
          <mxGeometry width="60" height="40" as="geometry">
            <mxRectangle width="60" height="40" as="alternateBounds" />
          </mxGeometry>
        </mxCell>
        <mxCell id="8Fdjfd8cLt4ZwxGpMuiX-17" value="0" style="shape=partialRectangle;html=1;whiteSpace=wrap;connectable=0;fillColor=none;top=0;left=0;bottom=0;right=0;overflow=hidden;sketch=1;fontFamily=Comic Sans MS;fontSize=12;" vertex="1" parent="8Fdjfd8cLt4ZwxGpMuiX-15">
          <mxGeometry x="60" width="60" height="40" as="geometry">
            <mxRectangle width="60" height="40" as="alternateBounds" />
          </mxGeometry>
        </mxCell>
        <mxCell id="8Fdjfd8cLt4ZwxGpMuiX-18" value="" style="shape=partialRectangle;html=1;whiteSpace=wrap;connectable=0;fillColor=none;top=0;left=0;bottom=0;right=0;overflow=hidden;sketch=1;fontFamily=Comic Sans MS;fontSize=12;" vertex="1" parent="8Fdjfd8cLt4ZwxGpMuiX-15">
          <mxGeometry x="120" width="60" height="40" as="geometry">
            <mxRectangle width="60" height="40" as="alternateBounds" />
          </mxGeometry>
        </mxCell>
        <mxCell id="8Fdjfd8cLt4ZwxGpMuiX-19" value="" style="shape=tableRow;horizontal=0;startSize=0;swimlaneHead=0;swimlaneBody=0;top=0;left=0;bottom=0;right=0;collapsible=0;dropTarget=0;fillColor=none;points=[[0,0.5],[1,0.5]];portConstraint=eastwest;sketch=1;fontFamily=Comic Sans MS;fontSize=12;" vertex="1" parent="8Fdjfd8cLt4ZwxGpMuiX-14">
          <mxGeometry y="40" width="180" height="40" as="geometry" />
        </mxCell>
        <mxCell id="8Fdjfd8cLt4ZwxGpMuiX-20" value="b" style="shape=partialRectangle;html=1;whiteSpace=wrap;connectable=0;fillColor=none;top=0;left=0;bottom=0;right=0;overflow=hidden;sketch=1;fontFamily=Comic Sans MS;fontSize=12;" vertex="1" parent="8Fdjfd8cLt4ZwxGpMuiX-19">
          <mxGeometry width="60" height="40" as="geometry">
            <mxRectangle width="60" height="40" as="alternateBounds" />
          </mxGeometry>
        </mxCell>
        <mxCell id="8Fdjfd8cLt4ZwxGpMuiX-21" value="0" style="shape=partialRectangle;html=1;whiteSpace=wrap;connectable=0;fillColor=none;top=0;left=0;bottom=0;right=0;overflow=hidden;sketch=1;fontFamily=Comic Sans MS;fontSize=12;" vertex="1" parent="8Fdjfd8cLt4ZwxGpMuiX-19">
          <mxGeometry x="60" width="60" height="40" as="geometry">
            <mxRectangle width="60" height="40" as="alternateBounds" />
          </mxGeometry>
        </mxCell>
        <mxCell id="8Fdjfd8cLt4ZwxGpMuiX-22" value="" style="shape=partialRectangle;html=1;whiteSpace=wrap;connectable=0;fillColor=none;top=0;left=0;bottom=0;right=0;overflow=hidden;sketch=1;fontFamily=Comic Sans MS;fontSize=12;" vertex="1" parent="8Fdjfd8cLt4ZwxGpMuiX-19">
          <mxGeometry x="120" width="60" height="40" as="geometry">
            <mxRectangle width="60" height="40" as="alternateBounds" />
          </mxGeometry>
        </mxCell>
        <mxCell id="8Fdjfd8cLt4ZwxGpMuiX-23" value="" style="shape=tableRow;horizontal=0;startSize=0;swimlaneHead=0;swimlaneBody=0;top=0;left=0;bottom=0;right=0;collapsible=0;dropTarget=0;fillColor=none;points=[[0,0.5],[1,0.5]];portConstraint=eastwest;sketch=1;fontFamily=Comic Sans MS;fontSize=12;" vertex="1" parent="8Fdjfd8cLt4ZwxGpMuiX-14">
          <mxGeometry y="80" width="180" height="40" as="geometry" />
        </mxCell>
        <mxCell id="8Fdjfd8cLt4ZwxGpMuiX-24" value="c" style="shape=partialRectangle;html=1;whiteSpace=wrap;connectable=0;fillColor=none;top=0;left=0;bottom=0;right=0;overflow=hidden;sketch=1;fontFamily=Comic Sans MS;fontSize=12;" vertex="1" parent="8Fdjfd8cLt4ZwxGpMuiX-23">
          <mxGeometry width="60" height="40" as="geometry">
            <mxRectangle width="60" height="40" as="alternateBounds" />
          </mxGeometry>
        </mxCell>
        <mxCell id="8Fdjfd8cLt4ZwxGpMuiX-25" value="0" style="shape=partialRectangle;html=1;whiteSpace=wrap;connectable=0;fillColor=none;top=0;left=0;bottom=0;right=0;overflow=hidden;sketch=1;fontFamily=Comic Sans MS;fontSize=12;" vertex="1" parent="8Fdjfd8cLt4ZwxGpMuiX-23">
          <mxGeometry x="60" width="60" height="40" as="geometry">
            <mxRectangle width="60" height="40" as="alternateBounds" />
          </mxGeometry>
        </mxCell>
        <mxCell id="8Fdjfd8cLt4ZwxGpMuiX-26" value="" style="shape=partialRectangle;html=1;whiteSpace=wrap;connectable=0;fillColor=none;top=0;left=0;bottom=0;right=0;overflow=hidden;pointerEvents=1;sketch=1;fontFamily=Comic Sans MS;fontSize=12;" vertex="1" parent="8Fdjfd8cLt4ZwxGpMuiX-23">
          <mxGeometry x="120" width="60" height="40" as="geometry">
            <mxRectangle width="60" height="40" as="alternateBounds" />
          </mxGeometry>
        </mxCell>
        <mxCell id="8Fdjfd8cLt4ZwxGpMuiX-27" value="" style="shape=tableRow;horizontal=0;startSize=0;swimlaneHead=0;swimlaneBody=0;top=0;left=0;bottom=0;right=0;collapsible=0;dropTarget=0;fillColor=none;points=[[0,0.5],[1,0.5]];portConstraint=eastwest;sketch=1;fontFamily=Comic Sans MS;fontSize=12;" vertex="1" parent="8Fdjfd8cLt4ZwxGpMuiX-14">
          <mxGeometry y="120" width="180" height="40" as="geometry" />
        </mxCell>
        <mxCell id="8Fdjfd8cLt4ZwxGpMuiX-28" value="L" style="shape=partialRectangle;html=1;whiteSpace=wrap;connectable=0;fillColor=none;top=0;left=0;bottom=0;right=0;overflow=hidden;sketch=1;fontFamily=Comic Sans MS;fontSize=12;" vertex="1" parent="8Fdjfd8cLt4ZwxGpMuiX-27">
          <mxGeometry width="60" height="40" as="geometry">
            <mxRectangle width="60" height="40" as="alternateBounds" />
          </mxGeometry>
        </mxCell>
        <mxCell id="8Fdjfd8cLt4ZwxGpMuiX-29" value="0" style="shape=partialRectangle;html=1;whiteSpace=wrap;connectable=0;fillColor=none;top=0;left=0;bottom=0;right=0;overflow=hidden;sketch=1;fontFamily=Comic Sans MS;fontSize=12;" vertex="1" parent="8Fdjfd8cLt4ZwxGpMuiX-27">
          <mxGeometry x="60" width="60" height="40" as="geometry">
            <mxRectangle width="60" height="40" as="alternateBounds" />
          </mxGeometry>
        </mxCell>
        <mxCell id="8Fdjfd8cLt4ZwxGpMuiX-30" value="" style="shape=partialRectangle;html=1;whiteSpace=wrap;connectable=0;fillColor=none;top=0;left=0;bottom=0;right=0;overflow=hidden;pointerEvents=1;sketch=1;fontFamily=Comic Sans MS;fontSize=12;" vertex="1" parent="8Fdjfd8cLt4ZwxGpMuiX-27">
          <mxGeometry x="120" width="60" height="40" as="geometry">
            <mxRectangle width="60" height="40" as="alternateBounds" />
          </mxGeometry>
        </mxCell>
        <mxCell id="8Fdjfd8cLt4ZwxGpMuiX-31" value="" style="shape=tableRow;horizontal=0;startSize=0;swimlaneHead=0;swimlaneBody=0;top=0;left=0;bottom=0;right=0;collapsible=0;dropTarget=0;fillColor=none;points=[[0,0.5],[1,0.5]];portConstraint=eastwest;sketch=1;fontFamily=Comic Sans MS;fontSize=12;" vertex="1" parent="8Fdjfd8cLt4ZwxGpMuiX-14">
          <mxGeometry y="160" width="180" height="40" as="geometry" />
        </mxCell>
        <mxCell id="8Fdjfd8cLt4ZwxGpMuiX-32" value="R" style="shape=partialRectangle;html=1;whiteSpace=wrap;connectable=0;fillColor=none;top=0;left=0;bottom=0;right=0;overflow=hidden;sketch=1;fontFamily=Comic Sans MS;fontSize=12;" vertex="1" parent="8Fdjfd8cLt4ZwxGpMuiX-31">
          <mxGeometry width="60" height="40" as="geometry">
            <mxRectangle width="60" height="40" as="alternateBounds" />
          </mxGeometry>
        </mxCell>
        <mxCell id="8Fdjfd8cLt4ZwxGpMuiX-33" value="0" style="shape=partialRectangle;html=1;whiteSpace=wrap;connectable=0;fillColor=none;top=0;left=0;bottom=0;right=0;overflow=hidden;sketch=1;fontFamily=Comic Sans MS;fontSize=12;" vertex="1" parent="8Fdjfd8cLt4ZwxGpMuiX-31">
          <mxGeometry x="60" width="60" height="40" as="geometry">
            <mxRectangle width="60" height="40" as="alternateBounds" />
          </mxGeometry>
        </mxCell>
        <mxCell id="8Fdjfd8cLt4ZwxGpMuiX-34" value="" style="shape=partialRectangle;html=1;whiteSpace=wrap;connectable=0;fillColor=none;top=0;left=0;bottom=0;right=0;overflow=hidden;pointerEvents=1;sketch=1;fontFamily=Comic Sans MS;fontSize=12;" vertex="1" parent="8Fdjfd8cLt4ZwxGpMuiX-31">
          <mxGeometry x="120" width="60" height="40" as="geometry">
            <mxRectangle width="60" height="40" as="alternateBounds" />
          </mxGeometry>
        </mxCell>
        <mxCell id="8Fdjfd8cLt4ZwxGpMuiX-35" value="" style="shape=tableRow;horizontal=0;startSize=0;swimlaneHead=0;swimlaneBody=0;top=0;left=0;bottom=0;right=0;collapsible=0;dropTarget=0;fillColor=none;points=[[0,0.5],[1,0.5]];portConstraint=eastwest;sketch=1;fontFamily=Comic Sans MS;fontSize=12;" vertex="1" parent="8Fdjfd8cLt4ZwxGpMuiX-14">
          <mxGeometry y="200" width="180" height="40" as="geometry" />
        </mxCell>
        <mxCell id="8Fdjfd8cLt4ZwxGpMuiX-36" value="Size" style="shape=partialRectangle;html=1;whiteSpace=wrap;connectable=0;fillColor=none;top=0;left=0;bottom=0;right=0;overflow=hidden;sketch=1;fontFamily=Comic Sans MS;fontSize=12;" vertex="1" parent="8Fdjfd8cLt4ZwxGpMuiX-35">
          <mxGeometry width="60" height="40" as="geometry">
            <mxRectangle width="60" height="40" as="alternateBounds" />
          </mxGeometry>
        </mxCell>
        <mxCell id="8Fdjfd8cLt4ZwxGpMuiX-37" value="0" style="shape=partialRectangle;html=1;whiteSpace=wrap;connectable=0;fillColor=none;top=0;left=0;bottom=0;right=0;overflow=hidden;sketch=1;fontFamily=Comic Sans MS;fontSize=12;" vertex="1" parent="8Fdjfd8cLt4ZwxGpMuiX-35">
          <mxGeometry x="60" width="60" height="40" as="geometry">
            <mxRectangle width="60" height="40" as="alternateBounds" />
          </mxGeometry>
        </mxCell>
        <mxCell id="8Fdjfd8cLt4ZwxGpMuiX-38" value="" style="shape=partialRectangle;html=1;whiteSpace=wrap;connectable=0;fillColor=none;top=0;left=0;bottom=0;right=0;overflow=hidden;pointerEvents=1;sketch=1;fontFamily=Comic Sans MS;fontSize=12;" vertex="1" parent="8Fdjfd8cLt4ZwxGpMuiX-35">
          <mxGeometry x="120" width="60" height="40" as="geometry">
            <mxRectangle width="60" height="40" as="alternateBounds" />
          </mxGeometry>
        </mxCell>
        <mxCell id="8Fdjfd8cLt4ZwxGpMuiX-39" value="a" style="text;html=1;strokeColor=#d6b656;fillColor=#fff2cc;align=center;verticalAlign=middle;whiteSpace=wrap;rounded=0;sketch=1;fontFamily=Comic Sans MS;fontSize=18;" vertex="1" parent="1">
          <mxGeometry x="120" y="490" width="40" height="40" as="geometry" />
        </mxCell>
        <mxCell id="8Fdjfd8cLt4ZwxGpMuiX-40" value="b" style="text;html=1;strokeColor=#d6b656;fillColor=#fff2cc;align=center;verticalAlign=middle;whiteSpace=wrap;rounded=0;sketch=1;fontFamily=Comic Sans MS;fontSize=18;" vertex="1" parent="1">
          <mxGeometry x="200" y="490" width="40" height="40" as="geometry" />
        </mxCell>
        <mxCell id="8Fdjfd8cLt4ZwxGpMuiX-41" value="c" style="text;html=1;strokeColor=#d6b656;fillColor=#fff2cc;align=center;verticalAlign=middle;whiteSpace=wrap;rounded=0;sketch=1;fontFamily=Comic Sans MS;fontSize=18;" vertex="1" parent="1">
          <mxGeometry x="280" y="490" width="40" height="40" as="geometry" />
        </mxCell>
        <mxCell id="8Fdjfd8cLt4ZwxGpMuiX-42" value="c" style="text;html=1;strokeColor=#d6b656;fillColor=#fff2cc;align=center;verticalAlign=middle;whiteSpace=wrap;rounded=0;sketch=1;fontFamily=Comic Sans MS;fontSize=18;" vertex="1" parent="1">
          <mxGeometry x="360" y="490" width="40" height="40" as="geometry" />
        </mxCell>
        <mxCell id="8Fdjfd8cLt4ZwxGpMuiX-43" value="b" style="text;html=1;strokeColor=#d6b656;fillColor=#fff2cc;align=center;verticalAlign=middle;whiteSpace=wrap;rounded=0;sketch=1;fontFamily=Comic Sans MS;fontSize=18;" vertex="1" parent="1">
          <mxGeometry x="440" y="490" width="40" height="40" as="geometry" />
        </mxCell>
        <mxCell id="8Fdjfd8cLt4ZwxGpMuiX-44" value="a" style="text;html=1;strokeColor=#d6b656;fillColor=#fff2cc;align=center;verticalAlign=middle;whiteSpace=wrap;rounded=0;sketch=1;fontFamily=Comic Sans MS;fontSize=18;" vertex="1" parent="1">
          <mxGeometry x="520" y="490" width="40" height="40" as="geometry" />
        </mxCell>
        <mxCell id="8Fdjfd8cLt4ZwxGpMuiX-45" value="" style="shape=flexArrow;endArrow=classic;html=1;rounded=0;fontFamily=Comic Sans MS;fontSize=18;shadow=0;sketch=1;fillColor=#dae8fc;strokeColor=#6c8ebf;endWidth=11.875;endSize=5;" edge="1" parent="1">
          <mxGeometry width="50" height="50" relative="1" as="geometry">
            <mxPoint x="153" y="590" as="sourcePoint" />
            <mxPoint x="153" y="550" as="targetPoint" />
          </mxGeometry>
        </mxCell>
        <mxCell id="8Fdjfd8cLt4ZwxGpMuiX-46" value="R" style="edgeLabel;html=1;align=center;verticalAlign=middle;resizable=0;points=[];fontSize=12;fontFamily=Comic Sans MS;" vertex="1" connectable="0" parent="8Fdjfd8cLt4ZwxGpMuiX-45">
          <mxGeometry x="0.386" y="-1" relative="1" as="geometry">
            <mxPoint as="offset" />
          </mxGeometry>
        </mxCell>
        <mxCell id="8Fdjfd8cLt4ZwxGpMuiX-47" value="" style="shape=flexArrow;endArrow=classic;html=1;rounded=0;fontFamily=Comic Sans MS;fontSize=18;shadow=0;sketch=1;fillColor=#dae8fc;strokeColor=#6c8ebf;endWidth=11.875;endSize=5;" edge="1" parent="1">
          <mxGeometry width="50" height="50" relative="1" as="geometry">
            <mxPoint x="125" y="590" as="sourcePoint" />
            <mxPoint x="125" y="550" as="targetPoint" />
          </mxGeometry>
        </mxCell>
        <mxCell id="8Fdjfd8cLt4ZwxGpMuiX-48" value="L" style="edgeLabel;html=1;align=center;verticalAlign=middle;resizable=0;points=[];fontSize=12;fontFamily=Comic Sans MS;" vertex="1" connectable="0" parent="8Fdjfd8cLt4ZwxGpMuiX-47">
          <mxGeometry x="0.386" y="-1" relative="1" as="geometry">
            <mxPoint as="offset" />
          </mxGeometry>
        </mxCell>
        <mxCell id="8Fdjfd8cLt4ZwxGpMuiX-49" value="" style="shape=table;html=1;whiteSpace=wrap;startSize=0;container=1;collapsible=0;childLayout=tableLayout;sketch=1;fontFamily=Comic Sans MS;fontSize=12;" vertex="1" parent="1">
          <mxGeometry x="640" y="410" width="180" height="240" as="geometry" />
        </mxCell>
        <mxCell id="8Fdjfd8cLt4ZwxGpMuiX-50" value="" style="shape=tableRow;horizontal=0;startSize=0;swimlaneHead=0;swimlaneBody=0;top=0;left=0;bottom=0;right=0;collapsible=0;dropTarget=0;fillColor=none;points=[[0,0.5],[1,0.5]];portConstraint=eastwest;sketch=1;fontFamily=Comic Sans MS;fontSize=12;" vertex="1" parent="8Fdjfd8cLt4ZwxGpMuiX-49">
          <mxGeometry width="180" height="40" as="geometry" />
        </mxCell>
        <mxCell id="8Fdjfd8cLt4ZwxGpMuiX-51" value="a" style="shape=partialRectangle;html=1;whiteSpace=wrap;connectable=0;fillColor=none;top=0;left=0;bottom=0;right=0;overflow=hidden;sketch=1;fontFamily=Comic Sans MS;fontSize=12;" vertex="1" parent="8Fdjfd8cLt4ZwxGpMuiX-50">
          <mxGeometry width="60" height="40" as="geometry">
            <mxRectangle width="60" height="40" as="alternateBounds" />
          </mxGeometry>
        </mxCell>
        <mxCell id="8Fdjfd8cLt4ZwxGpMuiX-52" value="0 -&amp;gt; 1" style="shape=partialRectangle;html=1;whiteSpace=wrap;connectable=0;fillColor=none;top=0;left=0;bottom=0;right=0;overflow=hidden;sketch=1;fontFamily=Comic Sans MS;fontSize=12;" vertex="1" parent="8Fdjfd8cLt4ZwxGpMuiX-50">
          <mxGeometry x="60" width="60" height="40" as="geometry">
            <mxRectangle width="60" height="40" as="alternateBounds" />
          </mxGeometry>
        </mxCell>
        <mxCell id="8Fdjfd8cLt4ZwxGpMuiX-53" value="" style="shape=partialRectangle;html=1;whiteSpace=wrap;connectable=0;fillColor=none;top=0;left=0;bottom=0;right=0;overflow=hidden;sketch=1;fontFamily=Comic Sans MS;fontSize=12;" vertex="1" parent="8Fdjfd8cLt4ZwxGpMuiX-50">
          <mxGeometry x="120" width="60" height="40" as="geometry">
            <mxRectangle width="60" height="40" as="alternateBounds" />
          </mxGeometry>
        </mxCell>
        <mxCell id="8Fdjfd8cLt4ZwxGpMuiX-54" value="" style="shape=tableRow;horizontal=0;startSize=0;swimlaneHead=0;swimlaneBody=0;top=0;left=0;bottom=0;right=0;collapsible=0;dropTarget=0;fillColor=none;points=[[0,0.5],[1,0.5]];portConstraint=eastwest;sketch=1;fontFamily=Comic Sans MS;fontSize=12;" vertex="1" parent="8Fdjfd8cLt4ZwxGpMuiX-49">
          <mxGeometry y="40" width="180" height="40" as="geometry" />
        </mxCell>
        <mxCell id="8Fdjfd8cLt4ZwxGpMuiX-55" value="b" style="shape=partialRectangle;html=1;whiteSpace=wrap;connectable=0;fillColor=none;top=0;left=0;bottom=0;right=0;overflow=hidden;sketch=1;fontFamily=Comic Sans MS;fontSize=12;" vertex="1" parent="8Fdjfd8cLt4ZwxGpMuiX-54">
          <mxGeometry width="60" height="40" as="geometry">
            <mxRectangle width="60" height="40" as="alternateBounds" />
          </mxGeometry>
        </mxCell>
        <mxCell id="8Fdjfd8cLt4ZwxGpMuiX-56" value="0" style="shape=partialRectangle;html=1;whiteSpace=wrap;connectable=0;fillColor=none;top=0;left=0;bottom=0;right=0;overflow=hidden;sketch=1;fontFamily=Comic Sans MS;fontSize=12;" vertex="1" parent="8Fdjfd8cLt4ZwxGpMuiX-54">
          <mxGeometry x="60" width="60" height="40" as="geometry">
            <mxRectangle width="60" height="40" as="alternateBounds" />
          </mxGeometry>
        </mxCell>
        <mxCell id="8Fdjfd8cLt4ZwxGpMuiX-57" value="" style="shape=partialRectangle;html=1;whiteSpace=wrap;connectable=0;fillColor=none;top=0;left=0;bottom=0;right=0;overflow=hidden;sketch=1;fontFamily=Comic Sans MS;fontSize=12;" vertex="1" parent="8Fdjfd8cLt4ZwxGpMuiX-54">
          <mxGeometry x="120" width="60" height="40" as="geometry">
            <mxRectangle width="60" height="40" as="alternateBounds" />
          </mxGeometry>
        </mxCell>
        <mxCell id="8Fdjfd8cLt4ZwxGpMuiX-58" value="" style="shape=tableRow;horizontal=0;startSize=0;swimlaneHead=0;swimlaneBody=0;top=0;left=0;bottom=0;right=0;collapsible=0;dropTarget=0;fillColor=none;points=[[0,0.5],[1,0.5]];portConstraint=eastwest;sketch=1;fontFamily=Comic Sans MS;fontSize=12;" vertex="1" parent="8Fdjfd8cLt4ZwxGpMuiX-49">
          <mxGeometry y="80" width="180" height="40" as="geometry" />
        </mxCell>
        <mxCell id="8Fdjfd8cLt4ZwxGpMuiX-59" value="c" style="shape=partialRectangle;html=1;whiteSpace=wrap;connectable=0;fillColor=none;top=0;left=0;bottom=0;right=0;overflow=hidden;sketch=1;fontFamily=Comic Sans MS;fontSize=12;" vertex="1" parent="8Fdjfd8cLt4ZwxGpMuiX-58">
          <mxGeometry width="60" height="40" as="geometry">
            <mxRectangle width="60" height="40" as="alternateBounds" />
          </mxGeometry>
        </mxCell>
        <mxCell id="8Fdjfd8cLt4ZwxGpMuiX-60" value="0" style="shape=partialRectangle;html=1;whiteSpace=wrap;connectable=0;fillColor=none;top=0;left=0;bottom=0;right=0;overflow=hidden;sketch=1;fontFamily=Comic Sans MS;fontSize=12;" vertex="1" parent="8Fdjfd8cLt4ZwxGpMuiX-58">
          <mxGeometry x="60" width="60" height="40" as="geometry">
            <mxRectangle width="60" height="40" as="alternateBounds" />
          </mxGeometry>
        </mxCell>
        <mxCell id="8Fdjfd8cLt4ZwxGpMuiX-61" value="" style="shape=partialRectangle;html=1;whiteSpace=wrap;connectable=0;fillColor=none;top=0;left=0;bottom=0;right=0;overflow=hidden;pointerEvents=1;sketch=1;fontFamily=Comic Sans MS;fontSize=12;" vertex="1" parent="8Fdjfd8cLt4ZwxGpMuiX-58">
          <mxGeometry x="120" width="60" height="40" as="geometry">
            <mxRectangle width="60" height="40" as="alternateBounds" />
          </mxGeometry>
        </mxCell>
        <mxCell id="8Fdjfd8cLt4ZwxGpMuiX-62" value="" style="shape=tableRow;horizontal=0;startSize=0;swimlaneHead=0;swimlaneBody=0;top=0;left=0;bottom=0;right=0;collapsible=0;dropTarget=0;fillColor=none;points=[[0,0.5],[1,0.5]];portConstraint=eastwest;sketch=1;fontFamily=Comic Sans MS;fontSize=12;" vertex="1" parent="8Fdjfd8cLt4ZwxGpMuiX-49">
          <mxGeometry y="120" width="180" height="40" as="geometry" />
        </mxCell>
        <mxCell id="8Fdjfd8cLt4ZwxGpMuiX-63" value="L" style="shape=partialRectangle;html=1;whiteSpace=wrap;connectable=0;fillColor=none;top=0;left=0;bottom=0;right=0;overflow=hidden;sketch=1;fontFamily=Comic Sans MS;fontSize=12;" vertex="1" parent="8Fdjfd8cLt4ZwxGpMuiX-62">
          <mxGeometry width="60" height="40" as="geometry">
            <mxRectangle width="60" height="40" as="alternateBounds" />
          </mxGeometry>
        </mxCell>
        <mxCell id="8Fdjfd8cLt4ZwxGpMuiX-64" value="0" style="shape=partialRectangle;html=1;whiteSpace=wrap;connectable=0;fillColor=none;top=0;left=0;bottom=0;right=0;overflow=hidden;sketch=1;fontFamily=Comic Sans MS;fontSize=12;" vertex="1" parent="8Fdjfd8cLt4ZwxGpMuiX-62">
          <mxGeometry x="60" width="60" height="40" as="geometry">
            <mxRectangle width="60" height="40" as="alternateBounds" />
          </mxGeometry>
        </mxCell>
        <mxCell id="8Fdjfd8cLt4ZwxGpMuiX-65" value="" style="shape=partialRectangle;html=1;whiteSpace=wrap;connectable=0;fillColor=none;top=0;left=0;bottom=0;right=0;overflow=hidden;pointerEvents=1;sketch=1;fontFamily=Comic Sans MS;fontSize=12;" vertex="1" parent="8Fdjfd8cLt4ZwxGpMuiX-62">
          <mxGeometry x="120" width="60" height="40" as="geometry">
            <mxRectangle width="60" height="40" as="alternateBounds" />
          </mxGeometry>
        </mxCell>
        <mxCell id="8Fdjfd8cLt4ZwxGpMuiX-66" value="" style="shape=tableRow;horizontal=0;startSize=0;swimlaneHead=0;swimlaneBody=0;top=0;left=0;bottom=0;right=0;collapsible=0;dropTarget=0;fillColor=none;points=[[0,0.5],[1,0.5]];portConstraint=eastwest;sketch=1;fontFamily=Comic Sans MS;fontSize=12;" vertex="1" parent="8Fdjfd8cLt4ZwxGpMuiX-49">
          <mxGeometry y="160" width="180" height="40" as="geometry" />
        </mxCell>
        <mxCell id="8Fdjfd8cLt4ZwxGpMuiX-67" value="R" style="shape=partialRectangle;html=1;whiteSpace=wrap;connectable=0;fillColor=none;top=0;left=0;bottom=0;right=0;overflow=hidden;sketch=1;fontFamily=Comic Sans MS;fontSize=12;" vertex="1" parent="8Fdjfd8cLt4ZwxGpMuiX-66">
          <mxGeometry width="60" height="40" as="geometry">
            <mxRectangle width="60" height="40" as="alternateBounds" />
          </mxGeometry>
        </mxCell>
        <mxCell id="8Fdjfd8cLt4ZwxGpMuiX-68" value="0" style="shape=partialRectangle;html=1;whiteSpace=wrap;connectable=0;fillColor=none;top=0;left=0;bottom=0;right=0;overflow=hidden;sketch=1;fontFamily=Comic Sans MS;fontSize=12;" vertex="1" parent="8Fdjfd8cLt4ZwxGpMuiX-66">
          <mxGeometry x="60" width="60" height="40" as="geometry">
            <mxRectangle width="60" height="40" as="alternateBounds" />
          </mxGeometry>
        </mxCell>
        <mxCell id="8Fdjfd8cLt4ZwxGpMuiX-69" value="" style="shape=partialRectangle;html=1;whiteSpace=wrap;connectable=0;fillColor=none;top=0;left=0;bottom=0;right=0;overflow=hidden;pointerEvents=1;sketch=1;fontFamily=Comic Sans MS;fontSize=12;" vertex="1" parent="8Fdjfd8cLt4ZwxGpMuiX-66">
          <mxGeometry x="120" width="60" height="40" as="geometry">
            <mxRectangle width="60" height="40" as="alternateBounds" />
          </mxGeometry>
        </mxCell>
        <mxCell id="8Fdjfd8cLt4ZwxGpMuiX-70" value="" style="shape=tableRow;horizontal=0;startSize=0;swimlaneHead=0;swimlaneBody=0;top=0;left=0;bottom=0;right=0;collapsible=0;dropTarget=0;fillColor=none;points=[[0,0.5],[1,0.5]];portConstraint=eastwest;sketch=1;fontFamily=Comic Sans MS;fontSize=12;" vertex="1" parent="8Fdjfd8cLt4ZwxGpMuiX-49">
          <mxGeometry y="200" width="180" height="40" as="geometry" />
        </mxCell>
        <mxCell id="8Fdjfd8cLt4ZwxGpMuiX-71" value="Size" style="shape=partialRectangle;html=1;whiteSpace=wrap;connectable=0;fillColor=none;top=0;left=0;bottom=0;right=0;overflow=hidden;sketch=1;fontFamily=Comic Sans MS;fontSize=12;" vertex="1" parent="8Fdjfd8cLt4ZwxGpMuiX-70">
          <mxGeometry width="60" height="40" as="geometry">
            <mxRectangle width="60" height="40" as="alternateBounds" />
          </mxGeometry>
        </mxCell>
        <mxCell id="8Fdjfd8cLt4ZwxGpMuiX-72" value="0 -&amp;gt; 1" style="shape=partialRectangle;html=1;whiteSpace=wrap;connectable=0;fillColor=none;top=0;left=0;bottom=0;right=0;overflow=hidden;sketch=1;fontFamily=Comic Sans MS;fontSize=12;" vertex="1" parent="8Fdjfd8cLt4ZwxGpMuiX-70">
          <mxGeometry x="60" width="60" height="40" as="geometry">
            <mxRectangle width="60" height="40" as="alternateBounds" />
          </mxGeometry>
        </mxCell>
        <mxCell id="8Fdjfd8cLt4ZwxGpMuiX-73" value="" style="shape=partialRectangle;html=1;whiteSpace=wrap;connectable=0;fillColor=none;top=0;left=0;bottom=0;right=0;overflow=hidden;pointerEvents=1;sketch=1;fontFamily=Comic Sans MS;fontSize=12;" vertex="1" parent="8Fdjfd8cLt4ZwxGpMuiX-70">
          <mxGeometry x="120" width="60" height="40" as="geometry">
            <mxRectangle width="60" height="40" as="alternateBounds" />
          </mxGeometry>
        </mxCell>
        <mxCell id="8Fdjfd8cLt4ZwxGpMuiX-74" value="L = max(table[s[r]], L)&lt;br&gt;Size = max(size, R-L+1)&lt;br&gt;table[s[r]] = r+1" style="shape=document;whiteSpace=wrap;html=1;boundedLbl=1;sketch=1;fontFamily=Comic Sans MS;fontSize=12;" vertex="1" parent="1">
          <mxGeometry x="120" y="360" width="160" height="90" as="geometry" />
        </mxCell>
        <mxCell id="8Fdjfd8cLt4ZwxGpMuiX-75" value="a" style="text;html=1;strokeColor=#d6b656;fillColor=#fff2cc;align=center;verticalAlign=middle;whiteSpace=wrap;rounded=0;sketch=1;fontFamily=Comic Sans MS;fontSize=18;" vertex="1" parent="1">
          <mxGeometry x="120" y="890" width="40" height="40" as="geometry" />
        </mxCell>
        <mxCell id="8Fdjfd8cLt4ZwxGpMuiX-76" value="b" style="text;html=1;strokeColor=#d6b656;fillColor=#fff2cc;align=center;verticalAlign=middle;whiteSpace=wrap;rounded=0;sketch=1;fontFamily=Comic Sans MS;fontSize=18;" vertex="1" parent="1">
          <mxGeometry x="200" y="890" width="40" height="40" as="geometry" />
        </mxCell>
        <mxCell id="8Fdjfd8cLt4ZwxGpMuiX-77" value="c" style="text;html=1;strokeColor=#d6b656;fillColor=#fff2cc;align=center;verticalAlign=middle;whiteSpace=wrap;rounded=0;sketch=1;fontFamily=Comic Sans MS;fontSize=18;" vertex="1" parent="1">
          <mxGeometry x="280" y="890" width="40" height="40" as="geometry" />
        </mxCell>
        <mxCell id="8Fdjfd8cLt4ZwxGpMuiX-78" value="c" style="text;html=1;strokeColor=#d6b656;fillColor=#fff2cc;align=center;verticalAlign=middle;whiteSpace=wrap;rounded=0;sketch=1;fontFamily=Comic Sans MS;fontSize=18;" vertex="1" parent="1">
          <mxGeometry x="360" y="890" width="40" height="40" as="geometry" />
        </mxCell>
        <mxCell id="8Fdjfd8cLt4ZwxGpMuiX-79" value="b" style="text;html=1;strokeColor=#d6b656;fillColor=#fff2cc;align=center;verticalAlign=middle;whiteSpace=wrap;rounded=0;sketch=1;fontFamily=Comic Sans MS;fontSize=18;" vertex="1" parent="1">
          <mxGeometry x="440" y="890" width="40" height="40" as="geometry" />
        </mxCell>
        <mxCell id="8Fdjfd8cLt4ZwxGpMuiX-80" value="a" style="text;html=1;strokeColor=#d6b656;fillColor=#fff2cc;align=center;verticalAlign=middle;whiteSpace=wrap;rounded=0;sketch=1;fontFamily=Comic Sans MS;fontSize=18;" vertex="1" parent="1">
          <mxGeometry x="520" y="890" width="40" height="40" as="geometry" />
        </mxCell>
        <mxCell id="8Fdjfd8cLt4ZwxGpMuiX-81" value="" style="shape=flexArrow;endArrow=classic;html=1;rounded=0;fontFamily=Comic Sans MS;fontSize=18;shadow=0;sketch=1;fillColor=#dae8fc;strokeColor=#6c8ebf;endWidth=11.875;endSize=5;" edge="1" parent="1">
          <mxGeometry width="50" height="50" relative="1" as="geometry">
            <mxPoint x="219.64" y="990" as="sourcePoint" />
            <mxPoint x="219.64" y="950" as="targetPoint" />
          </mxGeometry>
        </mxCell>
        <mxCell id="8Fdjfd8cLt4ZwxGpMuiX-82" value="R" style="edgeLabel;html=1;align=center;verticalAlign=middle;resizable=0;points=[];fontSize=12;fontFamily=Comic Sans MS;" vertex="1" connectable="0" parent="8Fdjfd8cLt4ZwxGpMuiX-81">
          <mxGeometry x="0.386" y="-1" relative="1" as="geometry">
            <mxPoint as="offset" />
          </mxGeometry>
        </mxCell>
        <mxCell id="8Fdjfd8cLt4ZwxGpMuiX-83" value="" style="shape=flexArrow;endArrow=classic;html=1;rounded=0;fontFamily=Comic Sans MS;fontSize=18;shadow=0;sketch=1;fillColor=#dae8fc;strokeColor=#6c8ebf;endWidth=11.875;endSize=5;" edge="1" parent="1">
          <mxGeometry width="50" height="50" relative="1" as="geometry">
            <mxPoint x="139.64" y="990" as="sourcePoint" />
            <mxPoint x="139.64" y="950" as="targetPoint" />
          </mxGeometry>
        </mxCell>
        <mxCell id="8Fdjfd8cLt4ZwxGpMuiX-84" value="L" style="edgeLabel;html=1;align=center;verticalAlign=middle;resizable=0;points=[];fontSize=12;fontFamily=Comic Sans MS;" vertex="1" connectable="0" parent="8Fdjfd8cLt4ZwxGpMuiX-83">
          <mxGeometry x="0.386" y="-1" relative="1" as="geometry">
            <mxPoint as="offset" />
          </mxGeometry>
        </mxCell>
        <mxCell id="8Fdjfd8cLt4ZwxGpMuiX-85" value="" style="shape=table;html=1;whiteSpace=wrap;startSize=0;container=1;collapsible=0;childLayout=tableLayout;sketch=1;fontFamily=Comic Sans MS;fontSize=12;" vertex="1" parent="1">
          <mxGeometry x="640" y="810" width="180" height="240" as="geometry" />
        </mxCell>
        <mxCell id="8Fdjfd8cLt4ZwxGpMuiX-86" value="" style="shape=tableRow;horizontal=0;startSize=0;swimlaneHead=0;swimlaneBody=0;top=0;left=0;bottom=0;right=0;collapsible=0;dropTarget=0;fillColor=none;points=[[0,0.5],[1,0.5]];portConstraint=eastwest;sketch=1;fontFamily=Comic Sans MS;fontSize=12;" vertex="1" parent="8Fdjfd8cLt4ZwxGpMuiX-85">
          <mxGeometry width="180" height="40" as="geometry" />
        </mxCell>
        <mxCell id="8Fdjfd8cLt4ZwxGpMuiX-87" value="a" style="shape=partialRectangle;html=1;whiteSpace=wrap;connectable=0;fillColor=none;top=0;left=0;bottom=0;right=0;overflow=hidden;sketch=1;fontFamily=Comic Sans MS;fontSize=12;" vertex="1" parent="8Fdjfd8cLt4ZwxGpMuiX-86">
          <mxGeometry width="60" height="40" as="geometry">
            <mxRectangle width="60" height="40" as="alternateBounds" />
          </mxGeometry>
        </mxCell>
        <mxCell id="8Fdjfd8cLt4ZwxGpMuiX-88" value="1" style="shape=partialRectangle;html=1;whiteSpace=wrap;connectable=0;fillColor=none;top=0;left=0;bottom=0;right=0;overflow=hidden;sketch=1;fontFamily=Comic Sans MS;fontSize=12;" vertex="1" parent="8Fdjfd8cLt4ZwxGpMuiX-86">
          <mxGeometry x="60" width="60" height="40" as="geometry">
            <mxRectangle width="60" height="40" as="alternateBounds" />
          </mxGeometry>
        </mxCell>
        <mxCell id="8Fdjfd8cLt4ZwxGpMuiX-89" value="" style="shape=partialRectangle;html=1;whiteSpace=wrap;connectable=0;fillColor=none;top=0;left=0;bottom=0;right=0;overflow=hidden;sketch=1;fontFamily=Comic Sans MS;fontSize=12;" vertex="1" parent="8Fdjfd8cLt4ZwxGpMuiX-86">
          <mxGeometry x="120" width="60" height="40" as="geometry">
            <mxRectangle width="60" height="40" as="alternateBounds" />
          </mxGeometry>
        </mxCell>
        <mxCell id="8Fdjfd8cLt4ZwxGpMuiX-90" value="" style="shape=tableRow;horizontal=0;startSize=0;swimlaneHead=0;swimlaneBody=0;top=0;left=0;bottom=0;right=0;collapsible=0;dropTarget=0;fillColor=none;points=[[0,0.5],[1,0.5]];portConstraint=eastwest;sketch=1;fontFamily=Comic Sans MS;fontSize=12;" vertex="1" parent="8Fdjfd8cLt4ZwxGpMuiX-85">
          <mxGeometry y="40" width="180" height="40" as="geometry" />
        </mxCell>
        <mxCell id="8Fdjfd8cLt4ZwxGpMuiX-91" value="b" style="shape=partialRectangle;html=1;whiteSpace=wrap;connectable=0;fillColor=none;top=0;left=0;bottom=0;right=0;overflow=hidden;sketch=1;fontFamily=Comic Sans MS;fontSize=12;" vertex="1" parent="8Fdjfd8cLt4ZwxGpMuiX-90">
          <mxGeometry width="60" height="40" as="geometry">
            <mxRectangle width="60" height="40" as="alternateBounds" />
          </mxGeometry>
        </mxCell>
        <mxCell id="8Fdjfd8cLt4ZwxGpMuiX-92" value="0" style="shape=partialRectangle;html=1;whiteSpace=wrap;connectable=0;fillColor=none;top=0;left=0;bottom=0;right=0;overflow=hidden;sketch=1;fontFamily=Comic Sans MS;fontSize=12;" vertex="1" parent="8Fdjfd8cLt4ZwxGpMuiX-90">
          <mxGeometry x="60" width="60" height="40" as="geometry">
            <mxRectangle width="60" height="40" as="alternateBounds" />
          </mxGeometry>
        </mxCell>
        <mxCell id="8Fdjfd8cLt4ZwxGpMuiX-93" value="" style="shape=partialRectangle;html=1;whiteSpace=wrap;connectable=0;fillColor=none;top=0;left=0;bottom=0;right=0;overflow=hidden;sketch=1;fontFamily=Comic Sans MS;fontSize=12;" vertex="1" parent="8Fdjfd8cLt4ZwxGpMuiX-90">
          <mxGeometry x="120" width="60" height="40" as="geometry">
            <mxRectangle width="60" height="40" as="alternateBounds" />
          </mxGeometry>
        </mxCell>
        <mxCell id="8Fdjfd8cLt4ZwxGpMuiX-94" value="" style="shape=tableRow;horizontal=0;startSize=0;swimlaneHead=0;swimlaneBody=0;top=0;left=0;bottom=0;right=0;collapsible=0;dropTarget=0;fillColor=none;points=[[0,0.5],[1,0.5]];portConstraint=eastwest;sketch=1;fontFamily=Comic Sans MS;fontSize=12;" vertex="1" parent="8Fdjfd8cLt4ZwxGpMuiX-85">
          <mxGeometry y="80" width="180" height="40" as="geometry" />
        </mxCell>
        <mxCell id="8Fdjfd8cLt4ZwxGpMuiX-95" value="c" style="shape=partialRectangle;html=1;whiteSpace=wrap;connectable=0;fillColor=none;top=0;left=0;bottom=0;right=0;overflow=hidden;sketch=1;fontFamily=Comic Sans MS;fontSize=12;" vertex="1" parent="8Fdjfd8cLt4ZwxGpMuiX-94">
          <mxGeometry width="60" height="40" as="geometry">
            <mxRectangle width="60" height="40" as="alternateBounds" />
          </mxGeometry>
        </mxCell>
        <mxCell id="8Fdjfd8cLt4ZwxGpMuiX-96" value="0" style="shape=partialRectangle;html=1;whiteSpace=wrap;connectable=0;fillColor=none;top=0;left=0;bottom=0;right=0;overflow=hidden;sketch=1;fontFamily=Comic Sans MS;fontSize=12;" vertex="1" parent="8Fdjfd8cLt4ZwxGpMuiX-94">
          <mxGeometry x="60" width="60" height="40" as="geometry">
            <mxRectangle width="60" height="40" as="alternateBounds" />
          </mxGeometry>
        </mxCell>
        <mxCell id="8Fdjfd8cLt4ZwxGpMuiX-97" value="" style="shape=partialRectangle;html=1;whiteSpace=wrap;connectable=0;fillColor=none;top=0;left=0;bottom=0;right=0;overflow=hidden;pointerEvents=1;sketch=1;fontFamily=Comic Sans MS;fontSize=12;" vertex="1" parent="8Fdjfd8cLt4ZwxGpMuiX-94">
          <mxGeometry x="120" width="60" height="40" as="geometry">
            <mxRectangle width="60" height="40" as="alternateBounds" />
          </mxGeometry>
        </mxCell>
        <mxCell id="8Fdjfd8cLt4ZwxGpMuiX-98" value="" style="shape=tableRow;horizontal=0;startSize=0;swimlaneHead=0;swimlaneBody=0;top=0;left=0;bottom=0;right=0;collapsible=0;dropTarget=0;fillColor=none;points=[[0,0.5],[1,0.5]];portConstraint=eastwest;sketch=1;fontFamily=Comic Sans MS;fontSize=12;" vertex="1" parent="8Fdjfd8cLt4ZwxGpMuiX-85">
          <mxGeometry y="120" width="180" height="40" as="geometry" />
        </mxCell>
        <mxCell id="8Fdjfd8cLt4ZwxGpMuiX-99" value="L" style="shape=partialRectangle;html=1;whiteSpace=wrap;connectable=0;fillColor=none;top=0;left=0;bottom=0;right=0;overflow=hidden;sketch=1;fontFamily=Comic Sans MS;fontSize=12;" vertex="1" parent="8Fdjfd8cLt4ZwxGpMuiX-98">
          <mxGeometry width="60" height="40" as="geometry">
            <mxRectangle width="60" height="40" as="alternateBounds" />
          </mxGeometry>
        </mxCell>
        <mxCell id="8Fdjfd8cLt4ZwxGpMuiX-100" value="0" style="shape=partialRectangle;html=1;whiteSpace=wrap;connectable=0;fillColor=none;top=0;left=0;bottom=0;right=0;overflow=hidden;sketch=1;fontFamily=Comic Sans MS;fontSize=12;" vertex="1" parent="8Fdjfd8cLt4ZwxGpMuiX-98">
          <mxGeometry x="60" width="60" height="40" as="geometry">
            <mxRectangle width="60" height="40" as="alternateBounds" />
          </mxGeometry>
        </mxCell>
        <mxCell id="8Fdjfd8cLt4ZwxGpMuiX-101" value="" style="shape=partialRectangle;html=1;whiteSpace=wrap;connectable=0;fillColor=none;top=0;left=0;bottom=0;right=0;overflow=hidden;pointerEvents=1;sketch=1;fontFamily=Comic Sans MS;fontSize=12;" vertex="1" parent="8Fdjfd8cLt4ZwxGpMuiX-98">
          <mxGeometry x="120" width="60" height="40" as="geometry">
            <mxRectangle width="60" height="40" as="alternateBounds" />
          </mxGeometry>
        </mxCell>
        <mxCell id="8Fdjfd8cLt4ZwxGpMuiX-102" value="" style="shape=tableRow;horizontal=0;startSize=0;swimlaneHead=0;swimlaneBody=0;top=0;left=0;bottom=0;right=0;collapsible=0;dropTarget=0;fillColor=none;points=[[0,0.5],[1,0.5]];portConstraint=eastwest;sketch=1;fontFamily=Comic Sans MS;fontSize=12;" vertex="1" parent="8Fdjfd8cLt4ZwxGpMuiX-85">
          <mxGeometry y="160" width="180" height="40" as="geometry" />
        </mxCell>
        <mxCell id="8Fdjfd8cLt4ZwxGpMuiX-103" value="R" style="shape=partialRectangle;html=1;whiteSpace=wrap;connectable=0;fillColor=none;top=0;left=0;bottom=0;right=0;overflow=hidden;sketch=1;fontFamily=Comic Sans MS;fontSize=12;" vertex="1" parent="8Fdjfd8cLt4ZwxGpMuiX-102">
          <mxGeometry width="60" height="40" as="geometry">
            <mxRectangle width="60" height="40" as="alternateBounds" />
          </mxGeometry>
        </mxCell>
        <mxCell id="8Fdjfd8cLt4ZwxGpMuiX-104" value="0 -&amp;gt; 1" style="shape=partialRectangle;html=1;whiteSpace=wrap;connectable=0;fillColor=none;top=0;left=0;bottom=0;right=0;overflow=hidden;sketch=1;fontFamily=Comic Sans MS;fontSize=12;" vertex="1" parent="8Fdjfd8cLt4ZwxGpMuiX-102">
          <mxGeometry x="60" width="60" height="40" as="geometry">
            <mxRectangle width="60" height="40" as="alternateBounds" />
          </mxGeometry>
        </mxCell>
        <mxCell id="8Fdjfd8cLt4ZwxGpMuiX-105" value="" style="shape=partialRectangle;html=1;whiteSpace=wrap;connectable=0;fillColor=none;top=0;left=0;bottom=0;right=0;overflow=hidden;pointerEvents=1;sketch=1;fontFamily=Comic Sans MS;fontSize=12;" vertex="1" parent="8Fdjfd8cLt4ZwxGpMuiX-102">
          <mxGeometry x="120" width="60" height="40" as="geometry">
            <mxRectangle width="60" height="40" as="alternateBounds" />
          </mxGeometry>
        </mxCell>
        <mxCell id="8Fdjfd8cLt4ZwxGpMuiX-106" value="" style="shape=tableRow;horizontal=0;startSize=0;swimlaneHead=0;swimlaneBody=0;top=0;left=0;bottom=0;right=0;collapsible=0;dropTarget=0;fillColor=none;points=[[0,0.5],[1,0.5]];portConstraint=eastwest;sketch=1;fontFamily=Comic Sans MS;fontSize=12;" vertex="1" parent="8Fdjfd8cLt4ZwxGpMuiX-85">
          <mxGeometry y="200" width="180" height="40" as="geometry" />
        </mxCell>
        <mxCell id="8Fdjfd8cLt4ZwxGpMuiX-107" value="Size" style="shape=partialRectangle;html=1;whiteSpace=wrap;connectable=0;fillColor=none;top=0;left=0;bottom=0;right=0;overflow=hidden;sketch=1;fontFamily=Comic Sans MS;fontSize=12;" vertex="1" parent="8Fdjfd8cLt4ZwxGpMuiX-106">
          <mxGeometry width="60" height="40" as="geometry">
            <mxRectangle width="60" height="40" as="alternateBounds" />
          </mxGeometry>
        </mxCell>
        <mxCell id="8Fdjfd8cLt4ZwxGpMuiX-108" value="1" style="shape=partialRectangle;html=1;whiteSpace=wrap;connectable=0;fillColor=none;top=0;left=0;bottom=0;right=0;overflow=hidden;sketch=1;fontFamily=Comic Sans MS;fontSize=12;" vertex="1" parent="8Fdjfd8cLt4ZwxGpMuiX-106">
          <mxGeometry x="60" width="60" height="40" as="geometry">
            <mxRectangle width="60" height="40" as="alternateBounds" />
          </mxGeometry>
        </mxCell>
        <mxCell id="8Fdjfd8cLt4ZwxGpMuiX-109" value="" style="shape=partialRectangle;html=1;whiteSpace=wrap;connectable=0;fillColor=none;top=0;left=0;bottom=0;right=0;overflow=hidden;pointerEvents=1;sketch=1;fontFamily=Comic Sans MS;fontSize=12;" vertex="1" parent="8Fdjfd8cLt4ZwxGpMuiX-106">
          <mxGeometry x="120" width="60" height="40" as="geometry">
            <mxRectangle width="60" height="40" as="alternateBounds" />
          </mxGeometry>
        </mxCell>
        <mxCell id="8Fdjfd8cLt4ZwxGpMuiX-110" value="r++" style="shape=document;whiteSpace=wrap;html=1;boundedLbl=1;sketch=1;fontFamily=Comic Sans MS;fontSize=12;" vertex="1" parent="1">
          <mxGeometry x="120" y="760" width="160" height="90" as="geometry" />
        </mxCell>
        <mxCell id="8Fdjfd8cLt4ZwxGpMuiX-111" value="a" style="text;html=1;strokeColor=#d6b656;fillColor=#fff2cc;align=center;verticalAlign=middle;whiteSpace=wrap;rounded=0;sketch=1;fontFamily=Comic Sans MS;fontSize=18;" vertex="1" parent="1">
          <mxGeometry x="120" y="1299" width="40" height="40" as="geometry" />
        </mxCell>
        <mxCell id="8Fdjfd8cLt4ZwxGpMuiX-112" value="b" style="text;html=1;strokeColor=#d6b656;fillColor=#fff2cc;align=center;verticalAlign=middle;whiteSpace=wrap;rounded=0;sketch=1;fontFamily=Comic Sans MS;fontSize=18;" vertex="1" parent="1">
          <mxGeometry x="200" y="1299" width="40" height="40" as="geometry" />
        </mxCell>
        <mxCell id="8Fdjfd8cLt4ZwxGpMuiX-113" value="c" style="text;html=1;strokeColor=#d6b656;fillColor=#fff2cc;align=center;verticalAlign=middle;whiteSpace=wrap;rounded=0;sketch=1;fontFamily=Comic Sans MS;fontSize=18;" vertex="1" parent="1">
          <mxGeometry x="280" y="1299" width="40" height="40" as="geometry" />
        </mxCell>
        <mxCell id="8Fdjfd8cLt4ZwxGpMuiX-114" value="c" style="text;html=1;strokeColor=#d6b656;fillColor=#fff2cc;align=center;verticalAlign=middle;whiteSpace=wrap;rounded=0;sketch=1;fontFamily=Comic Sans MS;fontSize=18;" vertex="1" parent="1">
          <mxGeometry x="360" y="1299" width="40" height="40" as="geometry" />
        </mxCell>
        <mxCell id="8Fdjfd8cLt4ZwxGpMuiX-115" value="b" style="text;html=1;strokeColor=#d6b656;fillColor=#fff2cc;align=center;verticalAlign=middle;whiteSpace=wrap;rounded=0;sketch=1;fontFamily=Comic Sans MS;fontSize=18;" vertex="1" parent="1">
          <mxGeometry x="440" y="1299" width="40" height="40" as="geometry" />
        </mxCell>
        <mxCell id="8Fdjfd8cLt4ZwxGpMuiX-116" value="a" style="text;html=1;strokeColor=#d6b656;fillColor=#fff2cc;align=center;verticalAlign=middle;whiteSpace=wrap;rounded=0;sketch=1;fontFamily=Comic Sans MS;fontSize=18;" vertex="1" parent="1">
          <mxGeometry x="520" y="1299" width="40" height="40" as="geometry" />
        </mxCell>
        <mxCell id="8Fdjfd8cLt4ZwxGpMuiX-117" value="" style="shape=flexArrow;endArrow=classic;html=1;rounded=0;fontFamily=Comic Sans MS;fontSize=18;shadow=0;sketch=1;fillColor=#dae8fc;strokeColor=#6c8ebf;endWidth=11.875;endSize=5;" edge="1" parent="1">
          <mxGeometry width="50" height="50" relative="1" as="geometry">
            <mxPoint x="299.5" y="1399" as="sourcePoint" />
            <mxPoint x="299.5" y="1359" as="targetPoint" />
          </mxGeometry>
        </mxCell>
        <mxCell id="8Fdjfd8cLt4ZwxGpMuiX-118" value="R" style="edgeLabel;html=1;align=center;verticalAlign=middle;resizable=0;points=[];fontSize=12;fontFamily=Comic Sans MS;" vertex="1" connectable="0" parent="8Fdjfd8cLt4ZwxGpMuiX-117">
          <mxGeometry x="0.386" y="-1" relative="1" as="geometry">
            <mxPoint as="offset" />
          </mxGeometry>
        </mxCell>
        <mxCell id="8Fdjfd8cLt4ZwxGpMuiX-119" value="" style="shape=flexArrow;endArrow=classic;html=1;rounded=0;fontFamily=Comic Sans MS;fontSize=18;shadow=0;sketch=1;fillColor=#dae8fc;strokeColor=#6c8ebf;endWidth=11.875;endSize=5;" edge="1" parent="1">
          <mxGeometry width="50" height="50" relative="1" as="geometry">
            <mxPoint x="139.71" y="1399" as="sourcePoint" />
            <mxPoint x="139.71" y="1359" as="targetPoint" />
          </mxGeometry>
        </mxCell>
        <mxCell id="8Fdjfd8cLt4ZwxGpMuiX-120" value="L" style="edgeLabel;html=1;align=center;verticalAlign=middle;resizable=0;points=[];fontSize=12;fontFamily=Comic Sans MS;" vertex="1" connectable="0" parent="8Fdjfd8cLt4ZwxGpMuiX-119">
          <mxGeometry x="0.386" y="-1" relative="1" as="geometry">
            <mxPoint as="offset" />
          </mxGeometry>
        </mxCell>
        <mxCell id="8Fdjfd8cLt4ZwxGpMuiX-121" value="" style="shape=table;html=1;whiteSpace=wrap;startSize=0;container=1;collapsible=0;childLayout=tableLayout;sketch=1;fontFamily=Comic Sans MS;fontSize=12;" vertex="1" parent="1">
          <mxGeometry x="640" y="1219" width="180" height="240" as="geometry" />
        </mxCell>
        <mxCell id="8Fdjfd8cLt4ZwxGpMuiX-122" value="" style="shape=tableRow;horizontal=0;startSize=0;swimlaneHead=0;swimlaneBody=0;top=0;left=0;bottom=0;right=0;collapsible=0;dropTarget=0;fillColor=none;points=[[0,0.5],[1,0.5]];portConstraint=eastwest;sketch=1;fontFamily=Comic Sans MS;fontSize=12;" vertex="1" parent="8Fdjfd8cLt4ZwxGpMuiX-121">
          <mxGeometry width="180" height="40" as="geometry" />
        </mxCell>
        <mxCell id="8Fdjfd8cLt4ZwxGpMuiX-123" value="a" style="shape=partialRectangle;html=1;whiteSpace=wrap;connectable=0;fillColor=none;top=0;left=0;bottom=0;right=0;overflow=hidden;sketch=1;fontFamily=Comic Sans MS;fontSize=12;" vertex="1" parent="8Fdjfd8cLt4ZwxGpMuiX-122">
          <mxGeometry width="60" height="40" as="geometry">
            <mxRectangle width="60" height="40" as="alternateBounds" />
          </mxGeometry>
        </mxCell>
        <mxCell id="8Fdjfd8cLt4ZwxGpMuiX-124" value="1" style="shape=partialRectangle;html=1;whiteSpace=wrap;connectable=0;fillColor=none;top=0;left=0;bottom=0;right=0;overflow=hidden;sketch=1;fontFamily=Comic Sans MS;fontSize=12;" vertex="1" parent="8Fdjfd8cLt4ZwxGpMuiX-122">
          <mxGeometry x="60" width="60" height="40" as="geometry">
            <mxRectangle width="60" height="40" as="alternateBounds" />
          </mxGeometry>
        </mxCell>
        <mxCell id="8Fdjfd8cLt4ZwxGpMuiX-125" value="" style="shape=partialRectangle;html=1;whiteSpace=wrap;connectable=0;fillColor=none;top=0;left=0;bottom=0;right=0;overflow=hidden;sketch=1;fontFamily=Comic Sans MS;fontSize=12;" vertex="1" parent="8Fdjfd8cLt4ZwxGpMuiX-122">
          <mxGeometry x="120" width="60" height="40" as="geometry">
            <mxRectangle width="60" height="40" as="alternateBounds" />
          </mxGeometry>
        </mxCell>
        <mxCell id="8Fdjfd8cLt4ZwxGpMuiX-126" value="" style="shape=tableRow;horizontal=0;startSize=0;swimlaneHead=0;swimlaneBody=0;top=0;left=0;bottom=0;right=0;collapsible=0;dropTarget=0;fillColor=none;points=[[0,0.5],[1,0.5]];portConstraint=eastwest;sketch=1;fontFamily=Comic Sans MS;fontSize=12;" vertex="1" parent="8Fdjfd8cLt4ZwxGpMuiX-121">
          <mxGeometry y="40" width="180" height="40" as="geometry" />
        </mxCell>
        <mxCell id="8Fdjfd8cLt4ZwxGpMuiX-127" value="b" style="shape=partialRectangle;html=1;whiteSpace=wrap;connectable=0;fillColor=none;top=0;left=0;bottom=0;right=0;overflow=hidden;sketch=1;fontFamily=Comic Sans MS;fontSize=12;" vertex="1" parent="8Fdjfd8cLt4ZwxGpMuiX-126">
          <mxGeometry width="60" height="40" as="geometry">
            <mxRectangle width="60" height="40" as="alternateBounds" />
          </mxGeometry>
        </mxCell>
        <mxCell id="8Fdjfd8cLt4ZwxGpMuiX-128" value="0 -&amp;gt; 2" style="shape=partialRectangle;html=1;whiteSpace=wrap;connectable=0;fillColor=none;top=0;left=0;bottom=0;right=0;overflow=hidden;sketch=1;fontFamily=Comic Sans MS;fontSize=12;" vertex="1" parent="8Fdjfd8cLt4ZwxGpMuiX-126">
          <mxGeometry x="60" width="60" height="40" as="geometry">
            <mxRectangle width="60" height="40" as="alternateBounds" />
          </mxGeometry>
        </mxCell>
        <mxCell id="8Fdjfd8cLt4ZwxGpMuiX-129" value="" style="shape=partialRectangle;html=1;whiteSpace=wrap;connectable=0;fillColor=none;top=0;left=0;bottom=0;right=0;overflow=hidden;sketch=1;fontFamily=Comic Sans MS;fontSize=12;" vertex="1" parent="8Fdjfd8cLt4ZwxGpMuiX-126">
          <mxGeometry x="120" width="60" height="40" as="geometry">
            <mxRectangle width="60" height="40" as="alternateBounds" />
          </mxGeometry>
        </mxCell>
        <mxCell id="8Fdjfd8cLt4ZwxGpMuiX-130" value="" style="shape=tableRow;horizontal=0;startSize=0;swimlaneHead=0;swimlaneBody=0;top=0;left=0;bottom=0;right=0;collapsible=0;dropTarget=0;fillColor=none;points=[[0,0.5],[1,0.5]];portConstraint=eastwest;sketch=1;fontFamily=Comic Sans MS;fontSize=12;" vertex="1" parent="8Fdjfd8cLt4ZwxGpMuiX-121">
          <mxGeometry y="80" width="180" height="40" as="geometry" />
        </mxCell>
        <mxCell id="8Fdjfd8cLt4ZwxGpMuiX-131" value="c" style="shape=partialRectangle;html=1;whiteSpace=wrap;connectable=0;fillColor=none;top=0;left=0;bottom=0;right=0;overflow=hidden;sketch=1;fontFamily=Comic Sans MS;fontSize=12;" vertex="1" parent="8Fdjfd8cLt4ZwxGpMuiX-130">
          <mxGeometry width="60" height="40" as="geometry">
            <mxRectangle width="60" height="40" as="alternateBounds" />
          </mxGeometry>
        </mxCell>
        <mxCell id="8Fdjfd8cLt4ZwxGpMuiX-132" value="0" style="shape=partialRectangle;html=1;whiteSpace=wrap;connectable=0;fillColor=none;top=0;left=0;bottom=0;right=0;overflow=hidden;sketch=1;fontFamily=Comic Sans MS;fontSize=12;" vertex="1" parent="8Fdjfd8cLt4ZwxGpMuiX-130">
          <mxGeometry x="60" width="60" height="40" as="geometry">
            <mxRectangle width="60" height="40" as="alternateBounds" />
          </mxGeometry>
        </mxCell>
        <mxCell id="8Fdjfd8cLt4ZwxGpMuiX-133" value="" style="shape=partialRectangle;html=1;whiteSpace=wrap;connectable=0;fillColor=none;top=0;left=0;bottom=0;right=0;overflow=hidden;pointerEvents=1;sketch=1;fontFamily=Comic Sans MS;fontSize=12;" vertex="1" parent="8Fdjfd8cLt4ZwxGpMuiX-130">
          <mxGeometry x="120" width="60" height="40" as="geometry">
            <mxRectangle width="60" height="40" as="alternateBounds" />
          </mxGeometry>
        </mxCell>
        <mxCell id="8Fdjfd8cLt4ZwxGpMuiX-134" value="" style="shape=tableRow;horizontal=0;startSize=0;swimlaneHead=0;swimlaneBody=0;top=0;left=0;bottom=0;right=0;collapsible=0;dropTarget=0;fillColor=none;points=[[0,0.5],[1,0.5]];portConstraint=eastwest;sketch=1;fontFamily=Comic Sans MS;fontSize=12;" vertex="1" parent="8Fdjfd8cLt4ZwxGpMuiX-121">
          <mxGeometry y="120" width="180" height="40" as="geometry" />
        </mxCell>
        <mxCell id="8Fdjfd8cLt4ZwxGpMuiX-135" value="L" style="shape=partialRectangle;html=1;whiteSpace=wrap;connectable=0;fillColor=none;top=0;left=0;bottom=0;right=0;overflow=hidden;sketch=1;fontFamily=Comic Sans MS;fontSize=12;" vertex="1" parent="8Fdjfd8cLt4ZwxGpMuiX-134">
          <mxGeometry width="60" height="40" as="geometry">
            <mxRectangle width="60" height="40" as="alternateBounds" />
          </mxGeometry>
        </mxCell>
        <mxCell id="8Fdjfd8cLt4ZwxGpMuiX-136" value="0" style="shape=partialRectangle;html=1;whiteSpace=wrap;connectable=0;fillColor=none;top=0;left=0;bottom=0;right=0;overflow=hidden;sketch=1;fontFamily=Comic Sans MS;fontSize=12;" vertex="1" parent="8Fdjfd8cLt4ZwxGpMuiX-134">
          <mxGeometry x="60" width="60" height="40" as="geometry">
            <mxRectangle width="60" height="40" as="alternateBounds" />
          </mxGeometry>
        </mxCell>
        <mxCell id="8Fdjfd8cLt4ZwxGpMuiX-137" value="" style="shape=partialRectangle;html=1;whiteSpace=wrap;connectable=0;fillColor=none;top=0;left=0;bottom=0;right=0;overflow=hidden;pointerEvents=1;sketch=1;fontFamily=Comic Sans MS;fontSize=12;" vertex="1" parent="8Fdjfd8cLt4ZwxGpMuiX-134">
          <mxGeometry x="120" width="60" height="40" as="geometry">
            <mxRectangle width="60" height="40" as="alternateBounds" />
          </mxGeometry>
        </mxCell>
        <mxCell id="8Fdjfd8cLt4ZwxGpMuiX-138" value="" style="shape=tableRow;horizontal=0;startSize=0;swimlaneHead=0;swimlaneBody=0;top=0;left=0;bottom=0;right=0;collapsible=0;dropTarget=0;fillColor=none;points=[[0,0.5],[1,0.5]];portConstraint=eastwest;sketch=1;fontFamily=Comic Sans MS;fontSize=12;" vertex="1" parent="8Fdjfd8cLt4ZwxGpMuiX-121">
          <mxGeometry y="160" width="180" height="40" as="geometry" />
        </mxCell>
        <mxCell id="8Fdjfd8cLt4ZwxGpMuiX-139" value="R" style="shape=partialRectangle;html=1;whiteSpace=wrap;connectable=0;fillColor=none;top=0;left=0;bottom=0;right=0;overflow=hidden;sketch=1;fontFamily=Comic Sans MS;fontSize=12;" vertex="1" parent="8Fdjfd8cLt4ZwxGpMuiX-138">
          <mxGeometry width="60" height="40" as="geometry">
            <mxRectangle width="60" height="40" as="alternateBounds" />
          </mxGeometry>
        </mxCell>
        <mxCell id="8Fdjfd8cLt4ZwxGpMuiX-140" value="1 -&amp;gt; 2" style="shape=partialRectangle;html=1;whiteSpace=wrap;connectable=0;fillColor=none;top=0;left=0;bottom=0;right=0;overflow=hidden;sketch=1;fontFamily=Comic Sans MS;fontSize=12;" vertex="1" parent="8Fdjfd8cLt4ZwxGpMuiX-138">
          <mxGeometry x="60" width="60" height="40" as="geometry">
            <mxRectangle width="60" height="40" as="alternateBounds" />
          </mxGeometry>
        </mxCell>
        <mxCell id="8Fdjfd8cLt4ZwxGpMuiX-141" value="" style="shape=partialRectangle;html=1;whiteSpace=wrap;connectable=0;fillColor=none;top=0;left=0;bottom=0;right=0;overflow=hidden;pointerEvents=1;sketch=1;fontFamily=Comic Sans MS;fontSize=12;" vertex="1" parent="8Fdjfd8cLt4ZwxGpMuiX-138">
          <mxGeometry x="120" width="60" height="40" as="geometry">
            <mxRectangle width="60" height="40" as="alternateBounds" />
          </mxGeometry>
        </mxCell>
        <mxCell id="8Fdjfd8cLt4ZwxGpMuiX-142" value="" style="shape=tableRow;horizontal=0;startSize=0;swimlaneHead=0;swimlaneBody=0;top=0;left=0;bottom=0;right=0;collapsible=0;dropTarget=0;fillColor=none;points=[[0,0.5],[1,0.5]];portConstraint=eastwest;sketch=1;fontFamily=Comic Sans MS;fontSize=12;" vertex="1" parent="8Fdjfd8cLt4ZwxGpMuiX-121">
          <mxGeometry y="200" width="180" height="40" as="geometry" />
        </mxCell>
        <mxCell id="8Fdjfd8cLt4ZwxGpMuiX-143" value="Size" style="shape=partialRectangle;html=1;whiteSpace=wrap;connectable=0;fillColor=none;top=0;left=0;bottom=0;right=0;overflow=hidden;sketch=1;fontFamily=Comic Sans MS;fontSize=12;" vertex="1" parent="8Fdjfd8cLt4ZwxGpMuiX-142">
          <mxGeometry width="60" height="40" as="geometry">
            <mxRectangle width="60" height="40" as="alternateBounds" />
          </mxGeometry>
        </mxCell>
        <mxCell id="8Fdjfd8cLt4ZwxGpMuiX-144" value="1 -&amp;gt; 2" style="shape=partialRectangle;html=1;whiteSpace=wrap;connectable=0;fillColor=none;top=0;left=0;bottom=0;right=0;overflow=hidden;sketch=1;fontFamily=Comic Sans MS;fontSize=12;" vertex="1" parent="8Fdjfd8cLt4ZwxGpMuiX-142">
          <mxGeometry x="60" width="60" height="40" as="geometry">
            <mxRectangle width="60" height="40" as="alternateBounds" />
          </mxGeometry>
        </mxCell>
        <mxCell id="8Fdjfd8cLt4ZwxGpMuiX-145" value="" style="shape=partialRectangle;html=1;whiteSpace=wrap;connectable=0;fillColor=none;top=0;left=0;bottom=0;right=0;overflow=hidden;pointerEvents=1;sketch=1;fontFamily=Comic Sans MS;fontSize=12;" vertex="1" parent="8Fdjfd8cLt4ZwxGpMuiX-142">
          <mxGeometry x="120" width="60" height="40" as="geometry">
            <mxRectangle width="60" height="40" as="alternateBounds" />
          </mxGeometry>
        </mxCell>
        <mxCell id="8Fdjfd8cLt4ZwxGpMuiX-146" value="L = max(table[s[r]], L)&lt;br&gt;Size = max(size, R-L+1)&lt;br&gt;table[s[r]] = r+1&lt;br&gt;r++" style="shape=document;whiteSpace=wrap;html=1;boundedLbl=1;sketch=1;fontFamily=Comic Sans MS;fontSize=12;" vertex="1" parent="1">
          <mxGeometry x="120" y="1169" width="160" height="90" as="geometry" />
        </mxCell>
        <mxCell id="8Fdjfd8cLt4ZwxGpMuiX-400" value="a" style="text;html=1;strokeColor=#d6b656;fillColor=#fff2cc;align=center;verticalAlign=middle;whiteSpace=wrap;rounded=0;sketch=1;fontFamily=Comic Sans MS;fontSize=18;" vertex="1" parent="1">
          <mxGeometry x="120" y="1730" width="40" height="40" as="geometry" />
        </mxCell>
        <mxCell id="8Fdjfd8cLt4ZwxGpMuiX-401" value="b" style="text;html=1;strokeColor=#d6b656;fillColor=#fff2cc;align=center;verticalAlign=middle;whiteSpace=wrap;rounded=0;sketch=1;fontFamily=Comic Sans MS;fontSize=18;" vertex="1" parent="1">
          <mxGeometry x="200" y="1730" width="40" height="40" as="geometry" />
        </mxCell>
        <mxCell id="8Fdjfd8cLt4ZwxGpMuiX-402" value="c" style="text;html=1;strokeColor=#d6b656;fillColor=#fff2cc;align=center;verticalAlign=middle;whiteSpace=wrap;rounded=0;sketch=1;fontFamily=Comic Sans MS;fontSize=18;" vertex="1" parent="1">
          <mxGeometry x="280" y="1730" width="40" height="40" as="geometry" />
        </mxCell>
        <mxCell id="8Fdjfd8cLt4ZwxGpMuiX-403" value="c" style="text;html=1;strokeColor=#d6b656;fillColor=#fff2cc;align=center;verticalAlign=middle;whiteSpace=wrap;rounded=0;sketch=1;fontFamily=Comic Sans MS;fontSize=18;" vertex="1" parent="1">
          <mxGeometry x="360" y="1730" width="40" height="40" as="geometry" />
        </mxCell>
        <mxCell id="8Fdjfd8cLt4ZwxGpMuiX-404" value="b" style="text;html=1;strokeColor=#d6b656;fillColor=#fff2cc;align=center;verticalAlign=middle;whiteSpace=wrap;rounded=0;sketch=1;fontFamily=Comic Sans MS;fontSize=18;" vertex="1" parent="1">
          <mxGeometry x="440" y="1730" width="40" height="40" as="geometry" />
        </mxCell>
        <mxCell id="8Fdjfd8cLt4ZwxGpMuiX-405" value="a" style="text;html=1;strokeColor=#d6b656;fillColor=#fff2cc;align=center;verticalAlign=middle;whiteSpace=wrap;rounded=0;sketch=1;fontFamily=Comic Sans MS;fontSize=18;" vertex="1" parent="1">
          <mxGeometry x="520" y="1730" width="40" height="40" as="geometry" />
        </mxCell>
        <mxCell id="8Fdjfd8cLt4ZwxGpMuiX-406" value="" style="shape=flexArrow;endArrow=classic;html=1;rounded=0;fontFamily=Comic Sans MS;fontSize=18;shadow=0;sketch=1;fillColor=#dae8fc;strokeColor=#6c8ebf;endWidth=11.875;endSize=5;" edge="1" parent="1">
          <mxGeometry width="50" height="50" relative="1" as="geometry">
            <mxPoint x="379.2300000000001" y="1830" as="sourcePoint" />
            <mxPoint x="379.2300000000001" y="1790" as="targetPoint" />
          </mxGeometry>
        </mxCell>
        <mxCell id="8Fdjfd8cLt4ZwxGpMuiX-407" value="R" style="edgeLabel;html=1;align=center;verticalAlign=middle;resizable=0;points=[];fontSize=12;fontFamily=Comic Sans MS;" vertex="1" connectable="0" parent="8Fdjfd8cLt4ZwxGpMuiX-406">
          <mxGeometry x="0.386" y="-1" relative="1" as="geometry">
            <mxPoint as="offset" />
          </mxGeometry>
        </mxCell>
        <mxCell id="8Fdjfd8cLt4ZwxGpMuiX-408" value="" style="shape=flexArrow;endArrow=classic;html=1;rounded=0;fontFamily=Comic Sans MS;fontSize=18;shadow=0;sketch=1;fillColor=#dae8fc;strokeColor=#6c8ebf;endWidth=11.875;endSize=5;" edge="1" parent="1">
          <mxGeometry width="50" height="50" relative="1" as="geometry">
            <mxPoint x="139.71000000000004" y="1830" as="sourcePoint" />
            <mxPoint x="139.71000000000004" y="1790" as="targetPoint" />
          </mxGeometry>
        </mxCell>
        <mxCell id="8Fdjfd8cLt4ZwxGpMuiX-409" value="L" style="edgeLabel;html=1;align=center;verticalAlign=middle;resizable=0;points=[];fontSize=12;fontFamily=Comic Sans MS;" vertex="1" connectable="0" parent="8Fdjfd8cLt4ZwxGpMuiX-408">
          <mxGeometry x="0.386" y="-1" relative="1" as="geometry">
            <mxPoint as="offset" />
          </mxGeometry>
        </mxCell>
        <mxCell id="8Fdjfd8cLt4ZwxGpMuiX-410" value="" style="shape=table;html=1;whiteSpace=wrap;startSize=0;container=1;collapsible=0;childLayout=tableLayout;sketch=1;fontFamily=Comic Sans MS;fontSize=12;" vertex="1" parent="1">
          <mxGeometry x="640" y="1650" width="180" height="240" as="geometry" />
        </mxCell>
        <mxCell id="8Fdjfd8cLt4ZwxGpMuiX-411" value="" style="shape=tableRow;horizontal=0;startSize=0;swimlaneHead=0;swimlaneBody=0;top=0;left=0;bottom=0;right=0;collapsible=0;dropTarget=0;fillColor=none;points=[[0,0.5],[1,0.5]];portConstraint=eastwest;sketch=1;fontFamily=Comic Sans MS;fontSize=12;" vertex="1" parent="8Fdjfd8cLt4ZwxGpMuiX-410">
          <mxGeometry width="180" height="40" as="geometry" />
        </mxCell>
        <mxCell id="8Fdjfd8cLt4ZwxGpMuiX-412" value="a" style="shape=partialRectangle;html=1;whiteSpace=wrap;connectable=0;fillColor=none;top=0;left=0;bottom=0;right=0;overflow=hidden;sketch=1;fontFamily=Comic Sans MS;fontSize=12;" vertex="1" parent="8Fdjfd8cLt4ZwxGpMuiX-411">
          <mxGeometry width="60" height="40" as="geometry">
            <mxRectangle width="60" height="40" as="alternateBounds" />
          </mxGeometry>
        </mxCell>
        <mxCell id="8Fdjfd8cLt4ZwxGpMuiX-413" value="1" style="shape=partialRectangle;html=1;whiteSpace=wrap;connectable=0;fillColor=none;top=0;left=0;bottom=0;right=0;overflow=hidden;sketch=1;fontFamily=Comic Sans MS;fontSize=12;" vertex="1" parent="8Fdjfd8cLt4ZwxGpMuiX-411">
          <mxGeometry x="60" width="60" height="40" as="geometry">
            <mxRectangle width="60" height="40" as="alternateBounds" />
          </mxGeometry>
        </mxCell>
        <mxCell id="8Fdjfd8cLt4ZwxGpMuiX-414" value="" style="shape=partialRectangle;html=1;whiteSpace=wrap;connectable=0;fillColor=none;top=0;left=0;bottom=0;right=0;overflow=hidden;sketch=1;fontFamily=Comic Sans MS;fontSize=12;" vertex="1" parent="8Fdjfd8cLt4ZwxGpMuiX-411">
          <mxGeometry x="120" width="60" height="40" as="geometry">
            <mxRectangle width="60" height="40" as="alternateBounds" />
          </mxGeometry>
        </mxCell>
        <mxCell id="8Fdjfd8cLt4ZwxGpMuiX-415" value="" style="shape=tableRow;horizontal=0;startSize=0;swimlaneHead=0;swimlaneBody=0;top=0;left=0;bottom=0;right=0;collapsible=0;dropTarget=0;fillColor=none;points=[[0,0.5],[1,0.5]];portConstraint=eastwest;sketch=1;fontFamily=Comic Sans MS;fontSize=12;" vertex="1" parent="8Fdjfd8cLt4ZwxGpMuiX-410">
          <mxGeometry y="40" width="180" height="40" as="geometry" />
        </mxCell>
        <mxCell id="8Fdjfd8cLt4ZwxGpMuiX-416" value="b" style="shape=partialRectangle;html=1;whiteSpace=wrap;connectable=0;fillColor=none;top=0;left=0;bottom=0;right=0;overflow=hidden;sketch=1;fontFamily=Comic Sans MS;fontSize=12;" vertex="1" parent="8Fdjfd8cLt4ZwxGpMuiX-415">
          <mxGeometry width="60" height="40" as="geometry">
            <mxRectangle width="60" height="40" as="alternateBounds" />
          </mxGeometry>
        </mxCell>
        <mxCell id="8Fdjfd8cLt4ZwxGpMuiX-417" value="2" style="shape=partialRectangle;html=1;whiteSpace=wrap;connectable=0;fillColor=none;top=0;left=0;bottom=0;right=0;overflow=hidden;sketch=1;fontFamily=Comic Sans MS;fontSize=12;" vertex="1" parent="8Fdjfd8cLt4ZwxGpMuiX-415">
          <mxGeometry x="60" width="60" height="40" as="geometry">
            <mxRectangle width="60" height="40" as="alternateBounds" />
          </mxGeometry>
        </mxCell>
        <mxCell id="8Fdjfd8cLt4ZwxGpMuiX-418" value="" style="shape=partialRectangle;html=1;whiteSpace=wrap;connectable=0;fillColor=none;top=0;left=0;bottom=0;right=0;overflow=hidden;sketch=1;fontFamily=Comic Sans MS;fontSize=12;" vertex="1" parent="8Fdjfd8cLt4ZwxGpMuiX-415">
          <mxGeometry x="120" width="60" height="40" as="geometry">
            <mxRectangle width="60" height="40" as="alternateBounds" />
          </mxGeometry>
        </mxCell>
        <mxCell id="8Fdjfd8cLt4ZwxGpMuiX-419" value="" style="shape=tableRow;horizontal=0;startSize=0;swimlaneHead=0;swimlaneBody=0;top=0;left=0;bottom=0;right=0;collapsible=0;dropTarget=0;fillColor=none;points=[[0,0.5],[1,0.5]];portConstraint=eastwest;sketch=1;fontFamily=Comic Sans MS;fontSize=12;" vertex="1" parent="8Fdjfd8cLt4ZwxGpMuiX-410">
          <mxGeometry y="80" width="180" height="40" as="geometry" />
        </mxCell>
        <mxCell id="8Fdjfd8cLt4ZwxGpMuiX-420" value="c" style="shape=partialRectangle;html=1;whiteSpace=wrap;connectable=0;fillColor=none;top=0;left=0;bottom=0;right=0;overflow=hidden;sketch=1;fontFamily=Comic Sans MS;fontSize=12;" vertex="1" parent="8Fdjfd8cLt4ZwxGpMuiX-419">
          <mxGeometry width="60" height="40" as="geometry">
            <mxRectangle width="60" height="40" as="alternateBounds" />
          </mxGeometry>
        </mxCell>
        <mxCell id="8Fdjfd8cLt4ZwxGpMuiX-421" value="0 -&amp;gt; 3" style="shape=partialRectangle;html=1;whiteSpace=wrap;connectable=0;fillColor=none;top=0;left=0;bottom=0;right=0;overflow=hidden;sketch=1;fontFamily=Comic Sans MS;fontSize=12;" vertex="1" parent="8Fdjfd8cLt4ZwxGpMuiX-419">
          <mxGeometry x="60" width="60" height="40" as="geometry">
            <mxRectangle width="60" height="40" as="alternateBounds" />
          </mxGeometry>
        </mxCell>
        <mxCell id="8Fdjfd8cLt4ZwxGpMuiX-422" value="" style="shape=partialRectangle;html=1;whiteSpace=wrap;connectable=0;fillColor=none;top=0;left=0;bottom=0;right=0;overflow=hidden;pointerEvents=1;sketch=1;fontFamily=Comic Sans MS;fontSize=12;" vertex="1" parent="8Fdjfd8cLt4ZwxGpMuiX-419">
          <mxGeometry x="120" width="60" height="40" as="geometry">
            <mxRectangle width="60" height="40" as="alternateBounds" />
          </mxGeometry>
        </mxCell>
        <mxCell id="8Fdjfd8cLt4ZwxGpMuiX-423" value="" style="shape=tableRow;horizontal=0;startSize=0;swimlaneHead=0;swimlaneBody=0;top=0;left=0;bottom=0;right=0;collapsible=0;dropTarget=0;fillColor=none;points=[[0,0.5],[1,0.5]];portConstraint=eastwest;sketch=1;fontFamily=Comic Sans MS;fontSize=12;" vertex="1" parent="8Fdjfd8cLt4ZwxGpMuiX-410">
          <mxGeometry y="120" width="180" height="40" as="geometry" />
        </mxCell>
        <mxCell id="8Fdjfd8cLt4ZwxGpMuiX-424" value="L" style="shape=partialRectangle;html=1;whiteSpace=wrap;connectable=0;fillColor=none;top=0;left=0;bottom=0;right=0;overflow=hidden;sketch=1;fontFamily=Comic Sans MS;fontSize=12;" vertex="1" parent="8Fdjfd8cLt4ZwxGpMuiX-423">
          <mxGeometry width="60" height="40" as="geometry">
            <mxRectangle width="60" height="40" as="alternateBounds" />
          </mxGeometry>
        </mxCell>
        <mxCell id="8Fdjfd8cLt4ZwxGpMuiX-425" value="0" style="shape=partialRectangle;html=1;whiteSpace=wrap;connectable=0;fillColor=none;top=0;left=0;bottom=0;right=0;overflow=hidden;sketch=1;fontFamily=Comic Sans MS;fontSize=12;" vertex="1" parent="8Fdjfd8cLt4ZwxGpMuiX-423">
          <mxGeometry x="60" width="60" height="40" as="geometry">
            <mxRectangle width="60" height="40" as="alternateBounds" />
          </mxGeometry>
        </mxCell>
        <mxCell id="8Fdjfd8cLt4ZwxGpMuiX-426" value="" style="shape=partialRectangle;html=1;whiteSpace=wrap;connectable=0;fillColor=none;top=0;left=0;bottom=0;right=0;overflow=hidden;pointerEvents=1;sketch=1;fontFamily=Comic Sans MS;fontSize=12;" vertex="1" parent="8Fdjfd8cLt4ZwxGpMuiX-423">
          <mxGeometry x="120" width="60" height="40" as="geometry">
            <mxRectangle width="60" height="40" as="alternateBounds" />
          </mxGeometry>
        </mxCell>
        <mxCell id="8Fdjfd8cLt4ZwxGpMuiX-427" value="" style="shape=tableRow;horizontal=0;startSize=0;swimlaneHead=0;swimlaneBody=0;top=0;left=0;bottom=0;right=0;collapsible=0;dropTarget=0;fillColor=none;points=[[0,0.5],[1,0.5]];portConstraint=eastwest;sketch=1;fontFamily=Comic Sans MS;fontSize=12;" vertex="1" parent="8Fdjfd8cLt4ZwxGpMuiX-410">
          <mxGeometry y="160" width="180" height="40" as="geometry" />
        </mxCell>
        <mxCell id="8Fdjfd8cLt4ZwxGpMuiX-428" value="R" style="shape=partialRectangle;html=1;whiteSpace=wrap;connectable=0;fillColor=none;top=0;left=0;bottom=0;right=0;overflow=hidden;sketch=1;fontFamily=Comic Sans MS;fontSize=12;" vertex="1" parent="8Fdjfd8cLt4ZwxGpMuiX-427">
          <mxGeometry width="60" height="40" as="geometry">
            <mxRectangle width="60" height="40" as="alternateBounds" />
          </mxGeometry>
        </mxCell>
        <mxCell id="8Fdjfd8cLt4ZwxGpMuiX-429" value="2 -&amp;gt; 3" style="shape=partialRectangle;html=1;whiteSpace=wrap;connectable=0;fillColor=none;top=0;left=0;bottom=0;right=0;overflow=hidden;sketch=1;fontFamily=Comic Sans MS;fontSize=12;" vertex="1" parent="8Fdjfd8cLt4ZwxGpMuiX-427">
          <mxGeometry x="60" width="60" height="40" as="geometry">
            <mxRectangle width="60" height="40" as="alternateBounds" />
          </mxGeometry>
        </mxCell>
        <mxCell id="8Fdjfd8cLt4ZwxGpMuiX-430" value="" style="shape=partialRectangle;html=1;whiteSpace=wrap;connectable=0;fillColor=none;top=0;left=0;bottom=0;right=0;overflow=hidden;pointerEvents=1;sketch=1;fontFamily=Comic Sans MS;fontSize=12;" vertex="1" parent="8Fdjfd8cLt4ZwxGpMuiX-427">
          <mxGeometry x="120" width="60" height="40" as="geometry">
            <mxRectangle width="60" height="40" as="alternateBounds" />
          </mxGeometry>
        </mxCell>
        <mxCell id="8Fdjfd8cLt4ZwxGpMuiX-431" value="" style="shape=tableRow;horizontal=0;startSize=0;swimlaneHead=0;swimlaneBody=0;top=0;left=0;bottom=0;right=0;collapsible=0;dropTarget=0;fillColor=none;points=[[0,0.5],[1,0.5]];portConstraint=eastwest;sketch=1;fontFamily=Comic Sans MS;fontSize=12;" vertex="1" parent="8Fdjfd8cLt4ZwxGpMuiX-410">
          <mxGeometry y="200" width="180" height="40" as="geometry" />
        </mxCell>
        <mxCell id="8Fdjfd8cLt4ZwxGpMuiX-432" value="Size" style="shape=partialRectangle;html=1;whiteSpace=wrap;connectable=0;fillColor=none;top=0;left=0;bottom=0;right=0;overflow=hidden;sketch=1;fontFamily=Comic Sans MS;fontSize=12;" vertex="1" parent="8Fdjfd8cLt4ZwxGpMuiX-431">
          <mxGeometry width="60" height="40" as="geometry">
            <mxRectangle width="60" height="40" as="alternateBounds" />
          </mxGeometry>
        </mxCell>
        <mxCell id="8Fdjfd8cLt4ZwxGpMuiX-433" value="2 -&amp;gt; 3" style="shape=partialRectangle;html=1;whiteSpace=wrap;connectable=0;fillColor=none;top=0;left=0;bottom=0;right=0;overflow=hidden;sketch=1;fontFamily=Comic Sans MS;fontSize=12;" vertex="1" parent="8Fdjfd8cLt4ZwxGpMuiX-431">
          <mxGeometry x="60" width="60" height="40" as="geometry">
            <mxRectangle width="60" height="40" as="alternateBounds" />
          </mxGeometry>
        </mxCell>
        <mxCell id="8Fdjfd8cLt4ZwxGpMuiX-434" value="" style="shape=partialRectangle;html=1;whiteSpace=wrap;connectable=0;fillColor=none;top=0;left=0;bottom=0;right=0;overflow=hidden;pointerEvents=1;sketch=1;fontFamily=Comic Sans MS;fontSize=12;" vertex="1" parent="8Fdjfd8cLt4ZwxGpMuiX-431">
          <mxGeometry x="120" width="60" height="40" as="geometry">
            <mxRectangle width="60" height="40" as="alternateBounds" />
          </mxGeometry>
        </mxCell>
        <mxCell id="8Fdjfd8cLt4ZwxGpMuiX-435" value="L = max(table[s[r]], L)&lt;br&gt;Size = max(size, R-L+1)&lt;br&gt;table[s[r]] = r+1&lt;br&gt;r++" style="shape=document;whiteSpace=wrap;html=1;boundedLbl=1;sketch=1;fontFamily=Comic Sans MS;fontSize=12;" vertex="1" parent="1">
          <mxGeometry x="120" y="1600" width="160" height="90" as="geometry" />
        </mxCell>
        <mxCell id="8Fdjfd8cLt4ZwxGpMuiX-436" value="a" style="text;html=1;strokeColor=#d6b656;fillColor=#fff2cc;align=center;verticalAlign=middle;whiteSpace=wrap;rounded=0;sketch=1;fontFamily=Comic Sans MS;fontSize=18;" vertex="1" parent="1">
          <mxGeometry x="120" y="2120" width="40" height="40" as="geometry" />
        </mxCell>
        <mxCell id="8Fdjfd8cLt4ZwxGpMuiX-437" value="b" style="text;html=1;strokeColor=#d6b656;fillColor=#fff2cc;align=center;verticalAlign=middle;whiteSpace=wrap;rounded=0;sketch=1;fontFamily=Comic Sans MS;fontSize=18;" vertex="1" parent="1">
          <mxGeometry x="200" y="2120" width="40" height="40" as="geometry" />
        </mxCell>
        <mxCell id="8Fdjfd8cLt4ZwxGpMuiX-438" value="c" style="text;html=1;strokeColor=#d6b656;fillColor=#fff2cc;align=center;verticalAlign=middle;whiteSpace=wrap;rounded=0;sketch=1;fontFamily=Comic Sans MS;fontSize=18;" vertex="1" parent="1">
          <mxGeometry x="280" y="2120" width="40" height="40" as="geometry" />
        </mxCell>
        <mxCell id="8Fdjfd8cLt4ZwxGpMuiX-439" value="c" style="text;html=1;strokeColor=#d6b656;fillColor=#fff2cc;align=center;verticalAlign=middle;whiteSpace=wrap;rounded=0;sketch=1;fontFamily=Comic Sans MS;fontSize=18;" vertex="1" parent="1">
          <mxGeometry x="360" y="2120" width="40" height="40" as="geometry" />
        </mxCell>
        <mxCell id="8Fdjfd8cLt4ZwxGpMuiX-440" value="b" style="text;html=1;strokeColor=#d6b656;fillColor=#fff2cc;align=center;verticalAlign=middle;whiteSpace=wrap;rounded=0;sketch=1;fontFamily=Comic Sans MS;fontSize=18;" vertex="1" parent="1">
          <mxGeometry x="440" y="2120" width="40" height="40" as="geometry" />
        </mxCell>
        <mxCell id="8Fdjfd8cLt4ZwxGpMuiX-441" value="a" style="text;html=1;strokeColor=#d6b656;fillColor=#fff2cc;align=center;verticalAlign=middle;whiteSpace=wrap;rounded=0;sketch=1;fontFamily=Comic Sans MS;fontSize=18;" vertex="1" parent="1">
          <mxGeometry x="520" y="2120" width="40" height="40" as="geometry" />
        </mxCell>
        <mxCell id="8Fdjfd8cLt4ZwxGpMuiX-442" value="" style="shape=flexArrow;endArrow=classic;html=1;rounded=0;fontFamily=Comic Sans MS;fontSize=18;shadow=0;sketch=1;fillColor=#dae8fc;strokeColor=#6c8ebf;endWidth=11.875;endSize=5;" edge="1" parent="1">
          <mxGeometry width="50" height="50" relative="1" as="geometry">
            <mxPoint x="459.79" y="2220" as="sourcePoint" />
            <mxPoint x="459.79" y="2180" as="targetPoint" />
          </mxGeometry>
        </mxCell>
        <mxCell id="8Fdjfd8cLt4ZwxGpMuiX-443" value="R" style="edgeLabel;html=1;align=center;verticalAlign=middle;resizable=0;points=[];fontSize=12;fontFamily=Comic Sans MS;" vertex="1" connectable="0" parent="8Fdjfd8cLt4ZwxGpMuiX-442">
          <mxGeometry x="0.386" y="-1" relative="1" as="geometry">
            <mxPoint as="offset" />
          </mxGeometry>
        </mxCell>
        <mxCell id="8Fdjfd8cLt4ZwxGpMuiX-444" value="" style="shape=flexArrow;endArrow=classic;html=1;rounded=0;fontFamily=Comic Sans MS;fontSize=18;shadow=0;sketch=1;fillColor=#dae8fc;strokeColor=#6c8ebf;endWidth=11.875;endSize=5;" edge="1" parent="1">
          <mxGeometry width="50" height="50" relative="1" as="geometry">
            <mxPoint x="379.5" y="2220" as="sourcePoint" />
            <mxPoint x="379.5" y="2180" as="targetPoint" />
          </mxGeometry>
        </mxCell>
        <mxCell id="8Fdjfd8cLt4ZwxGpMuiX-445" value="L" style="edgeLabel;html=1;align=center;verticalAlign=middle;resizable=0;points=[];fontSize=12;fontFamily=Comic Sans MS;" vertex="1" connectable="0" parent="8Fdjfd8cLt4ZwxGpMuiX-444">
          <mxGeometry x="0.386" y="-1" relative="1" as="geometry">
            <mxPoint as="offset" />
          </mxGeometry>
        </mxCell>
        <mxCell id="8Fdjfd8cLt4ZwxGpMuiX-446" value="" style="shape=table;html=1;whiteSpace=wrap;startSize=0;container=1;collapsible=0;childLayout=tableLayout;sketch=1;fontFamily=Comic Sans MS;fontSize=12;" vertex="1" parent="1">
          <mxGeometry x="640" y="2040" width="180" height="240" as="geometry" />
        </mxCell>
        <mxCell id="8Fdjfd8cLt4ZwxGpMuiX-447" value="" style="shape=tableRow;horizontal=0;startSize=0;swimlaneHead=0;swimlaneBody=0;top=0;left=0;bottom=0;right=0;collapsible=0;dropTarget=0;fillColor=none;points=[[0,0.5],[1,0.5]];portConstraint=eastwest;sketch=1;fontFamily=Comic Sans MS;fontSize=12;" vertex="1" parent="8Fdjfd8cLt4ZwxGpMuiX-446">
          <mxGeometry width="180" height="40" as="geometry" />
        </mxCell>
        <mxCell id="8Fdjfd8cLt4ZwxGpMuiX-448" value="a" style="shape=partialRectangle;html=1;whiteSpace=wrap;connectable=0;fillColor=none;top=0;left=0;bottom=0;right=0;overflow=hidden;sketch=1;fontFamily=Comic Sans MS;fontSize=12;" vertex="1" parent="8Fdjfd8cLt4ZwxGpMuiX-447">
          <mxGeometry width="60" height="40" as="geometry">
            <mxRectangle width="60" height="40" as="alternateBounds" />
          </mxGeometry>
        </mxCell>
        <mxCell id="8Fdjfd8cLt4ZwxGpMuiX-449" value="1" style="shape=partialRectangle;html=1;whiteSpace=wrap;connectable=0;fillColor=none;top=0;left=0;bottom=0;right=0;overflow=hidden;sketch=1;fontFamily=Comic Sans MS;fontSize=12;" vertex="1" parent="8Fdjfd8cLt4ZwxGpMuiX-447">
          <mxGeometry x="60" width="60" height="40" as="geometry">
            <mxRectangle width="60" height="40" as="alternateBounds" />
          </mxGeometry>
        </mxCell>
        <mxCell id="8Fdjfd8cLt4ZwxGpMuiX-450" value="" style="shape=partialRectangle;html=1;whiteSpace=wrap;connectable=0;fillColor=none;top=0;left=0;bottom=0;right=0;overflow=hidden;sketch=1;fontFamily=Comic Sans MS;fontSize=12;" vertex="1" parent="8Fdjfd8cLt4ZwxGpMuiX-447">
          <mxGeometry x="120" width="60" height="40" as="geometry">
            <mxRectangle width="60" height="40" as="alternateBounds" />
          </mxGeometry>
        </mxCell>
        <mxCell id="8Fdjfd8cLt4ZwxGpMuiX-451" value="" style="shape=tableRow;horizontal=0;startSize=0;swimlaneHead=0;swimlaneBody=0;top=0;left=0;bottom=0;right=0;collapsible=0;dropTarget=0;fillColor=none;points=[[0,0.5],[1,0.5]];portConstraint=eastwest;sketch=1;fontFamily=Comic Sans MS;fontSize=12;" vertex="1" parent="8Fdjfd8cLt4ZwxGpMuiX-446">
          <mxGeometry y="40" width="180" height="40" as="geometry" />
        </mxCell>
        <mxCell id="8Fdjfd8cLt4ZwxGpMuiX-452" value="b" style="shape=partialRectangle;html=1;whiteSpace=wrap;connectable=0;fillColor=none;top=0;left=0;bottom=0;right=0;overflow=hidden;sketch=1;fontFamily=Comic Sans MS;fontSize=12;" vertex="1" parent="8Fdjfd8cLt4ZwxGpMuiX-451">
          <mxGeometry width="60" height="40" as="geometry">
            <mxRectangle width="60" height="40" as="alternateBounds" />
          </mxGeometry>
        </mxCell>
        <mxCell id="8Fdjfd8cLt4ZwxGpMuiX-453" value="2" style="shape=partialRectangle;html=1;whiteSpace=wrap;connectable=0;fillColor=none;top=0;left=0;bottom=0;right=0;overflow=hidden;sketch=1;fontFamily=Comic Sans MS;fontSize=12;" vertex="1" parent="8Fdjfd8cLt4ZwxGpMuiX-451">
          <mxGeometry x="60" width="60" height="40" as="geometry">
            <mxRectangle width="60" height="40" as="alternateBounds" />
          </mxGeometry>
        </mxCell>
        <mxCell id="8Fdjfd8cLt4ZwxGpMuiX-454" value="" style="shape=partialRectangle;html=1;whiteSpace=wrap;connectable=0;fillColor=none;top=0;left=0;bottom=0;right=0;overflow=hidden;sketch=1;fontFamily=Comic Sans MS;fontSize=12;" vertex="1" parent="8Fdjfd8cLt4ZwxGpMuiX-451">
          <mxGeometry x="120" width="60" height="40" as="geometry">
            <mxRectangle width="60" height="40" as="alternateBounds" />
          </mxGeometry>
        </mxCell>
        <mxCell id="8Fdjfd8cLt4ZwxGpMuiX-455" value="" style="shape=tableRow;horizontal=0;startSize=0;swimlaneHead=0;swimlaneBody=0;top=0;left=0;bottom=0;right=0;collapsible=0;dropTarget=0;fillColor=none;points=[[0,0.5],[1,0.5]];portConstraint=eastwest;sketch=1;fontFamily=Comic Sans MS;fontSize=12;" vertex="1" parent="8Fdjfd8cLt4ZwxGpMuiX-446">
          <mxGeometry y="80" width="180" height="40" as="geometry" />
        </mxCell>
        <mxCell id="8Fdjfd8cLt4ZwxGpMuiX-456" value="c" style="shape=partialRectangle;html=1;whiteSpace=wrap;connectable=0;fillColor=none;top=0;left=0;bottom=0;right=0;overflow=hidden;sketch=1;fontFamily=Comic Sans MS;fontSize=12;" vertex="1" parent="8Fdjfd8cLt4ZwxGpMuiX-455">
          <mxGeometry width="60" height="40" as="geometry">
            <mxRectangle width="60" height="40" as="alternateBounds" />
          </mxGeometry>
        </mxCell>
        <mxCell id="8Fdjfd8cLt4ZwxGpMuiX-457" value="3 -&amp;gt; 4" style="shape=partialRectangle;html=1;whiteSpace=wrap;connectable=0;fillColor=none;top=0;left=0;bottom=0;right=0;overflow=hidden;sketch=1;fontFamily=Comic Sans MS;fontSize=12;" vertex="1" parent="8Fdjfd8cLt4ZwxGpMuiX-455">
          <mxGeometry x="60" width="60" height="40" as="geometry">
            <mxRectangle width="60" height="40" as="alternateBounds" />
          </mxGeometry>
        </mxCell>
        <mxCell id="8Fdjfd8cLt4ZwxGpMuiX-458" value="" style="shape=partialRectangle;html=1;whiteSpace=wrap;connectable=0;fillColor=none;top=0;left=0;bottom=0;right=0;overflow=hidden;pointerEvents=1;sketch=1;fontFamily=Comic Sans MS;fontSize=12;" vertex="1" parent="8Fdjfd8cLt4ZwxGpMuiX-455">
          <mxGeometry x="120" width="60" height="40" as="geometry">
            <mxRectangle width="60" height="40" as="alternateBounds" />
          </mxGeometry>
        </mxCell>
        <mxCell id="8Fdjfd8cLt4ZwxGpMuiX-459" value="" style="shape=tableRow;horizontal=0;startSize=0;swimlaneHead=0;swimlaneBody=0;top=0;left=0;bottom=0;right=0;collapsible=0;dropTarget=0;fillColor=none;points=[[0,0.5],[1,0.5]];portConstraint=eastwest;sketch=1;fontFamily=Comic Sans MS;fontSize=12;" vertex="1" parent="8Fdjfd8cLt4ZwxGpMuiX-446">
          <mxGeometry y="120" width="180" height="40" as="geometry" />
        </mxCell>
        <mxCell id="8Fdjfd8cLt4ZwxGpMuiX-460" value="L" style="shape=partialRectangle;html=1;whiteSpace=wrap;connectable=0;fillColor=none;top=0;left=0;bottom=0;right=0;overflow=hidden;sketch=1;fontFamily=Comic Sans MS;fontSize=12;" vertex="1" parent="8Fdjfd8cLt4ZwxGpMuiX-459">
          <mxGeometry width="60" height="40" as="geometry">
            <mxRectangle width="60" height="40" as="alternateBounds" />
          </mxGeometry>
        </mxCell>
        <mxCell id="8Fdjfd8cLt4ZwxGpMuiX-461" value="3" style="shape=partialRectangle;html=1;whiteSpace=wrap;connectable=0;fillColor=none;top=0;left=0;bottom=0;right=0;overflow=hidden;sketch=1;fontFamily=Comic Sans MS;fontSize=12;" vertex="1" parent="8Fdjfd8cLt4ZwxGpMuiX-459">
          <mxGeometry x="60" width="60" height="40" as="geometry">
            <mxRectangle width="60" height="40" as="alternateBounds" />
          </mxGeometry>
        </mxCell>
        <mxCell id="8Fdjfd8cLt4ZwxGpMuiX-462" value="" style="shape=partialRectangle;html=1;whiteSpace=wrap;connectable=0;fillColor=none;top=0;left=0;bottom=0;right=0;overflow=hidden;pointerEvents=1;sketch=1;fontFamily=Comic Sans MS;fontSize=12;" vertex="1" parent="8Fdjfd8cLt4ZwxGpMuiX-459">
          <mxGeometry x="120" width="60" height="40" as="geometry">
            <mxRectangle width="60" height="40" as="alternateBounds" />
          </mxGeometry>
        </mxCell>
        <mxCell id="8Fdjfd8cLt4ZwxGpMuiX-463" value="" style="shape=tableRow;horizontal=0;startSize=0;swimlaneHead=0;swimlaneBody=0;top=0;left=0;bottom=0;right=0;collapsible=0;dropTarget=0;fillColor=none;points=[[0,0.5],[1,0.5]];portConstraint=eastwest;sketch=1;fontFamily=Comic Sans MS;fontSize=12;" vertex="1" parent="8Fdjfd8cLt4ZwxGpMuiX-446">
          <mxGeometry y="160" width="180" height="40" as="geometry" />
        </mxCell>
        <mxCell id="8Fdjfd8cLt4ZwxGpMuiX-464" value="R" style="shape=partialRectangle;html=1;whiteSpace=wrap;connectable=0;fillColor=none;top=0;left=0;bottom=0;right=0;overflow=hidden;sketch=1;fontFamily=Comic Sans MS;fontSize=12;" vertex="1" parent="8Fdjfd8cLt4ZwxGpMuiX-463">
          <mxGeometry width="60" height="40" as="geometry">
            <mxRectangle width="60" height="40" as="alternateBounds" />
          </mxGeometry>
        </mxCell>
        <mxCell id="8Fdjfd8cLt4ZwxGpMuiX-465" value="3 -&amp;gt; 4" style="shape=partialRectangle;html=1;whiteSpace=wrap;connectable=0;fillColor=none;top=0;left=0;bottom=0;right=0;overflow=hidden;sketch=1;fontFamily=Comic Sans MS;fontSize=12;" vertex="1" parent="8Fdjfd8cLt4ZwxGpMuiX-463">
          <mxGeometry x="60" width="60" height="40" as="geometry">
            <mxRectangle width="60" height="40" as="alternateBounds" />
          </mxGeometry>
        </mxCell>
        <mxCell id="8Fdjfd8cLt4ZwxGpMuiX-466" value="" style="shape=partialRectangle;html=1;whiteSpace=wrap;connectable=0;fillColor=none;top=0;left=0;bottom=0;right=0;overflow=hidden;pointerEvents=1;sketch=1;fontFamily=Comic Sans MS;fontSize=12;" vertex="1" parent="8Fdjfd8cLt4ZwxGpMuiX-463">
          <mxGeometry x="120" width="60" height="40" as="geometry">
            <mxRectangle width="60" height="40" as="alternateBounds" />
          </mxGeometry>
        </mxCell>
        <mxCell id="8Fdjfd8cLt4ZwxGpMuiX-467" value="" style="shape=tableRow;horizontal=0;startSize=0;swimlaneHead=0;swimlaneBody=0;top=0;left=0;bottom=0;right=0;collapsible=0;dropTarget=0;fillColor=none;points=[[0,0.5],[1,0.5]];portConstraint=eastwest;sketch=1;fontFamily=Comic Sans MS;fontSize=12;" vertex="1" parent="8Fdjfd8cLt4ZwxGpMuiX-446">
          <mxGeometry y="200" width="180" height="40" as="geometry" />
        </mxCell>
        <mxCell id="8Fdjfd8cLt4ZwxGpMuiX-468" value="Size" style="shape=partialRectangle;html=1;whiteSpace=wrap;connectable=0;fillColor=none;top=0;left=0;bottom=0;right=0;overflow=hidden;sketch=1;fontFamily=Comic Sans MS;fontSize=12;" vertex="1" parent="8Fdjfd8cLt4ZwxGpMuiX-467">
          <mxGeometry width="60" height="40" as="geometry">
            <mxRectangle width="60" height="40" as="alternateBounds" />
          </mxGeometry>
        </mxCell>
        <mxCell id="8Fdjfd8cLt4ZwxGpMuiX-469" value="3" style="shape=partialRectangle;html=1;whiteSpace=wrap;connectable=0;fillColor=none;top=0;left=0;bottom=0;right=0;overflow=hidden;sketch=1;fontFamily=Comic Sans MS;fontSize=12;" vertex="1" parent="8Fdjfd8cLt4ZwxGpMuiX-467">
          <mxGeometry x="60" width="60" height="40" as="geometry">
            <mxRectangle width="60" height="40" as="alternateBounds" />
          </mxGeometry>
        </mxCell>
        <mxCell id="8Fdjfd8cLt4ZwxGpMuiX-470" value="" style="shape=partialRectangle;html=1;whiteSpace=wrap;connectable=0;fillColor=none;top=0;left=0;bottom=0;right=0;overflow=hidden;pointerEvents=1;sketch=1;fontFamily=Comic Sans MS;fontSize=12;" vertex="1" parent="8Fdjfd8cLt4ZwxGpMuiX-467">
          <mxGeometry x="120" width="60" height="40" as="geometry">
            <mxRectangle width="60" height="40" as="alternateBounds" />
          </mxGeometry>
        </mxCell>
        <mxCell id="8Fdjfd8cLt4ZwxGpMuiX-471" value="L = max(table[s[r]], L)&lt;br&gt;Size = max(size, R-L+1)&lt;br&gt;table[s[r]] = r+1&lt;br&gt;r++" style="shape=document;whiteSpace=wrap;html=1;boundedLbl=1;sketch=1;fontFamily=Comic Sans MS;fontSize=12;" vertex="1" parent="1">
          <mxGeometry x="120" y="1990" width="160" height="90" as="geometry" />
        </mxCell>
        <mxCell id="8Fdjfd8cLt4ZwxGpMuiX-508" value="a" style="text;html=1;strokeColor=#d6b656;fillColor=#fff2cc;align=center;verticalAlign=middle;whiteSpace=wrap;rounded=0;sketch=1;fontFamily=Comic Sans MS;fontSize=18;" vertex="1" parent="1">
          <mxGeometry x="120" y="2530" width="40" height="40" as="geometry" />
        </mxCell>
        <mxCell id="8Fdjfd8cLt4ZwxGpMuiX-509" value="b" style="text;html=1;strokeColor=#d6b656;fillColor=#fff2cc;align=center;verticalAlign=middle;whiteSpace=wrap;rounded=0;sketch=1;fontFamily=Comic Sans MS;fontSize=18;" vertex="1" parent="1">
          <mxGeometry x="200" y="2530" width="40" height="40" as="geometry" />
        </mxCell>
        <mxCell id="8Fdjfd8cLt4ZwxGpMuiX-510" value="c" style="text;html=1;strokeColor=#d6b656;fillColor=#fff2cc;align=center;verticalAlign=middle;whiteSpace=wrap;rounded=0;sketch=1;fontFamily=Comic Sans MS;fontSize=18;" vertex="1" parent="1">
          <mxGeometry x="280" y="2530" width="40" height="40" as="geometry" />
        </mxCell>
        <mxCell id="8Fdjfd8cLt4ZwxGpMuiX-511" value="c" style="text;html=1;strokeColor=#d6b656;fillColor=#fff2cc;align=center;verticalAlign=middle;whiteSpace=wrap;rounded=0;sketch=1;fontFamily=Comic Sans MS;fontSize=18;" vertex="1" parent="1">
          <mxGeometry x="360" y="2530" width="40" height="40" as="geometry" />
        </mxCell>
        <mxCell id="8Fdjfd8cLt4ZwxGpMuiX-512" value="b" style="text;html=1;strokeColor=#d6b656;fillColor=#fff2cc;align=center;verticalAlign=middle;whiteSpace=wrap;rounded=0;sketch=1;fontFamily=Comic Sans MS;fontSize=18;" vertex="1" parent="1">
          <mxGeometry x="440" y="2530" width="40" height="40" as="geometry" />
        </mxCell>
        <mxCell id="8Fdjfd8cLt4ZwxGpMuiX-513" value="a" style="text;html=1;strokeColor=#d6b656;fillColor=#fff2cc;align=center;verticalAlign=middle;whiteSpace=wrap;rounded=0;sketch=1;fontFamily=Comic Sans MS;fontSize=18;" vertex="1" parent="1">
          <mxGeometry x="520" y="2530" width="40" height="40" as="geometry" />
        </mxCell>
        <mxCell id="8Fdjfd8cLt4ZwxGpMuiX-514" value="" style="shape=flexArrow;endArrow=classic;html=1;rounded=0;fontFamily=Comic Sans MS;fontSize=18;shadow=0;sketch=1;fillColor=#dae8fc;strokeColor=#6c8ebf;endWidth=11.875;endSize=5;" edge="1" parent="1">
          <mxGeometry width="50" height="50" relative="1" as="geometry">
            <mxPoint x="539.5" y="2630" as="sourcePoint" />
            <mxPoint x="539.5" y="2590" as="targetPoint" />
          </mxGeometry>
        </mxCell>
        <mxCell id="8Fdjfd8cLt4ZwxGpMuiX-515" value="R" style="edgeLabel;html=1;align=center;verticalAlign=middle;resizable=0;points=[];fontSize=12;fontFamily=Comic Sans MS;" vertex="1" connectable="0" parent="8Fdjfd8cLt4ZwxGpMuiX-514">
          <mxGeometry x="0.386" y="-1" relative="1" as="geometry">
            <mxPoint as="offset" />
          </mxGeometry>
        </mxCell>
        <mxCell id="8Fdjfd8cLt4ZwxGpMuiX-516" value="" style="shape=flexArrow;endArrow=classic;html=1;rounded=0;fontFamily=Comic Sans MS;fontSize=18;shadow=0;sketch=1;fillColor=#dae8fc;strokeColor=#6c8ebf;endWidth=11.875;endSize=5;" edge="1" parent="1">
          <mxGeometry width="50" height="50" relative="1" as="geometry">
            <mxPoint x="379.69" y="2630" as="sourcePoint" />
            <mxPoint x="379.69" y="2590" as="targetPoint" />
          </mxGeometry>
        </mxCell>
        <mxCell id="8Fdjfd8cLt4ZwxGpMuiX-517" value="L" style="edgeLabel;html=1;align=center;verticalAlign=middle;resizable=0;points=[];fontSize=12;fontFamily=Comic Sans MS;" vertex="1" connectable="0" parent="8Fdjfd8cLt4ZwxGpMuiX-516">
          <mxGeometry x="0.386" y="-1" relative="1" as="geometry">
            <mxPoint as="offset" />
          </mxGeometry>
        </mxCell>
        <mxCell id="8Fdjfd8cLt4ZwxGpMuiX-518" value="" style="shape=table;html=1;whiteSpace=wrap;startSize=0;container=1;collapsible=0;childLayout=tableLayout;sketch=1;fontFamily=Comic Sans MS;fontSize=12;" vertex="1" parent="1">
          <mxGeometry x="640" y="2450" width="180" height="240" as="geometry" />
        </mxCell>
        <mxCell id="8Fdjfd8cLt4ZwxGpMuiX-519" value="" style="shape=tableRow;horizontal=0;startSize=0;swimlaneHead=0;swimlaneBody=0;top=0;left=0;bottom=0;right=0;collapsible=0;dropTarget=0;fillColor=none;points=[[0,0.5],[1,0.5]];portConstraint=eastwest;sketch=1;fontFamily=Comic Sans MS;fontSize=12;" vertex="1" parent="8Fdjfd8cLt4ZwxGpMuiX-518">
          <mxGeometry width="180" height="40" as="geometry" />
        </mxCell>
        <mxCell id="8Fdjfd8cLt4ZwxGpMuiX-520" value="a" style="shape=partialRectangle;html=1;whiteSpace=wrap;connectable=0;fillColor=none;top=0;left=0;bottom=0;right=0;overflow=hidden;sketch=1;fontFamily=Comic Sans MS;fontSize=12;" vertex="1" parent="8Fdjfd8cLt4ZwxGpMuiX-519">
          <mxGeometry width="60" height="40" as="geometry">
            <mxRectangle width="60" height="40" as="alternateBounds" />
          </mxGeometry>
        </mxCell>
        <mxCell id="8Fdjfd8cLt4ZwxGpMuiX-521" value="1" style="shape=partialRectangle;html=1;whiteSpace=wrap;connectable=0;fillColor=none;top=0;left=0;bottom=0;right=0;overflow=hidden;sketch=1;fontFamily=Comic Sans MS;fontSize=12;" vertex="1" parent="8Fdjfd8cLt4ZwxGpMuiX-519">
          <mxGeometry x="60" width="60" height="40" as="geometry">
            <mxRectangle width="60" height="40" as="alternateBounds" />
          </mxGeometry>
        </mxCell>
        <mxCell id="8Fdjfd8cLt4ZwxGpMuiX-522" value="" style="shape=partialRectangle;html=1;whiteSpace=wrap;connectable=0;fillColor=none;top=0;left=0;bottom=0;right=0;overflow=hidden;sketch=1;fontFamily=Comic Sans MS;fontSize=12;" vertex="1" parent="8Fdjfd8cLt4ZwxGpMuiX-519">
          <mxGeometry x="120" width="60" height="40" as="geometry">
            <mxRectangle width="60" height="40" as="alternateBounds" />
          </mxGeometry>
        </mxCell>
        <mxCell id="8Fdjfd8cLt4ZwxGpMuiX-523" value="" style="shape=tableRow;horizontal=0;startSize=0;swimlaneHead=0;swimlaneBody=0;top=0;left=0;bottom=0;right=0;collapsible=0;dropTarget=0;fillColor=none;points=[[0,0.5],[1,0.5]];portConstraint=eastwest;sketch=1;fontFamily=Comic Sans MS;fontSize=12;" vertex="1" parent="8Fdjfd8cLt4ZwxGpMuiX-518">
          <mxGeometry y="40" width="180" height="40" as="geometry" />
        </mxCell>
        <mxCell id="8Fdjfd8cLt4ZwxGpMuiX-524" value="b" style="shape=partialRectangle;html=1;whiteSpace=wrap;connectable=0;fillColor=none;top=0;left=0;bottom=0;right=0;overflow=hidden;sketch=1;fontFamily=Comic Sans MS;fontSize=12;" vertex="1" parent="8Fdjfd8cLt4ZwxGpMuiX-523">
          <mxGeometry width="60" height="40" as="geometry">
            <mxRectangle width="60" height="40" as="alternateBounds" />
          </mxGeometry>
        </mxCell>
        <mxCell id="8Fdjfd8cLt4ZwxGpMuiX-525" value="2 -&amp;gt; 5" style="shape=partialRectangle;html=1;whiteSpace=wrap;connectable=0;fillColor=none;top=0;left=0;bottom=0;right=0;overflow=hidden;sketch=1;fontFamily=Comic Sans MS;fontSize=12;" vertex="1" parent="8Fdjfd8cLt4ZwxGpMuiX-523">
          <mxGeometry x="60" width="60" height="40" as="geometry">
            <mxRectangle width="60" height="40" as="alternateBounds" />
          </mxGeometry>
        </mxCell>
        <mxCell id="8Fdjfd8cLt4ZwxGpMuiX-526" value="" style="shape=partialRectangle;html=1;whiteSpace=wrap;connectable=0;fillColor=none;top=0;left=0;bottom=0;right=0;overflow=hidden;sketch=1;fontFamily=Comic Sans MS;fontSize=12;" vertex="1" parent="8Fdjfd8cLt4ZwxGpMuiX-523">
          <mxGeometry x="120" width="60" height="40" as="geometry">
            <mxRectangle width="60" height="40" as="alternateBounds" />
          </mxGeometry>
        </mxCell>
        <mxCell id="8Fdjfd8cLt4ZwxGpMuiX-527" value="" style="shape=tableRow;horizontal=0;startSize=0;swimlaneHead=0;swimlaneBody=0;top=0;left=0;bottom=0;right=0;collapsible=0;dropTarget=0;fillColor=none;points=[[0,0.5],[1,0.5]];portConstraint=eastwest;sketch=1;fontFamily=Comic Sans MS;fontSize=12;" vertex="1" parent="8Fdjfd8cLt4ZwxGpMuiX-518">
          <mxGeometry y="80" width="180" height="40" as="geometry" />
        </mxCell>
        <mxCell id="8Fdjfd8cLt4ZwxGpMuiX-528" value="c" style="shape=partialRectangle;html=1;whiteSpace=wrap;connectable=0;fillColor=none;top=0;left=0;bottom=0;right=0;overflow=hidden;sketch=1;fontFamily=Comic Sans MS;fontSize=12;" vertex="1" parent="8Fdjfd8cLt4ZwxGpMuiX-527">
          <mxGeometry width="60" height="40" as="geometry">
            <mxRectangle width="60" height="40" as="alternateBounds" />
          </mxGeometry>
        </mxCell>
        <mxCell id="8Fdjfd8cLt4ZwxGpMuiX-529" value="4" style="shape=partialRectangle;html=1;whiteSpace=wrap;connectable=0;fillColor=none;top=0;left=0;bottom=0;right=0;overflow=hidden;sketch=1;fontFamily=Comic Sans MS;fontSize=12;" vertex="1" parent="8Fdjfd8cLt4ZwxGpMuiX-527">
          <mxGeometry x="60" width="60" height="40" as="geometry">
            <mxRectangle width="60" height="40" as="alternateBounds" />
          </mxGeometry>
        </mxCell>
        <mxCell id="8Fdjfd8cLt4ZwxGpMuiX-530" value="" style="shape=partialRectangle;html=1;whiteSpace=wrap;connectable=0;fillColor=none;top=0;left=0;bottom=0;right=0;overflow=hidden;pointerEvents=1;sketch=1;fontFamily=Comic Sans MS;fontSize=12;" vertex="1" parent="8Fdjfd8cLt4ZwxGpMuiX-527">
          <mxGeometry x="120" width="60" height="40" as="geometry">
            <mxRectangle width="60" height="40" as="alternateBounds" />
          </mxGeometry>
        </mxCell>
        <mxCell id="8Fdjfd8cLt4ZwxGpMuiX-531" value="" style="shape=tableRow;horizontal=0;startSize=0;swimlaneHead=0;swimlaneBody=0;top=0;left=0;bottom=0;right=0;collapsible=0;dropTarget=0;fillColor=none;points=[[0,0.5],[1,0.5]];portConstraint=eastwest;sketch=1;fontFamily=Comic Sans MS;fontSize=12;" vertex="1" parent="8Fdjfd8cLt4ZwxGpMuiX-518">
          <mxGeometry y="120" width="180" height="40" as="geometry" />
        </mxCell>
        <mxCell id="8Fdjfd8cLt4ZwxGpMuiX-532" value="L" style="shape=partialRectangle;html=1;whiteSpace=wrap;connectable=0;fillColor=none;top=0;left=0;bottom=0;right=0;overflow=hidden;sketch=1;fontFamily=Comic Sans MS;fontSize=12;" vertex="1" parent="8Fdjfd8cLt4ZwxGpMuiX-531">
          <mxGeometry width="60" height="40" as="geometry">
            <mxRectangle width="60" height="40" as="alternateBounds" />
          </mxGeometry>
        </mxCell>
        <mxCell id="8Fdjfd8cLt4ZwxGpMuiX-533" value="3" style="shape=partialRectangle;html=1;whiteSpace=wrap;connectable=0;fillColor=none;top=0;left=0;bottom=0;right=0;overflow=hidden;sketch=1;fontFamily=Comic Sans MS;fontSize=12;" vertex="1" parent="8Fdjfd8cLt4ZwxGpMuiX-531">
          <mxGeometry x="60" width="60" height="40" as="geometry">
            <mxRectangle width="60" height="40" as="alternateBounds" />
          </mxGeometry>
        </mxCell>
        <mxCell id="8Fdjfd8cLt4ZwxGpMuiX-534" value="" style="shape=partialRectangle;html=1;whiteSpace=wrap;connectable=0;fillColor=none;top=0;left=0;bottom=0;right=0;overflow=hidden;pointerEvents=1;sketch=1;fontFamily=Comic Sans MS;fontSize=12;" vertex="1" parent="8Fdjfd8cLt4ZwxGpMuiX-531">
          <mxGeometry x="120" width="60" height="40" as="geometry">
            <mxRectangle width="60" height="40" as="alternateBounds" />
          </mxGeometry>
        </mxCell>
        <mxCell id="8Fdjfd8cLt4ZwxGpMuiX-535" value="" style="shape=tableRow;horizontal=0;startSize=0;swimlaneHead=0;swimlaneBody=0;top=0;left=0;bottom=0;right=0;collapsible=0;dropTarget=0;fillColor=none;points=[[0,0.5],[1,0.5]];portConstraint=eastwest;sketch=1;fontFamily=Comic Sans MS;fontSize=12;" vertex="1" parent="8Fdjfd8cLt4ZwxGpMuiX-518">
          <mxGeometry y="160" width="180" height="40" as="geometry" />
        </mxCell>
        <mxCell id="8Fdjfd8cLt4ZwxGpMuiX-536" value="R" style="shape=partialRectangle;html=1;whiteSpace=wrap;connectable=0;fillColor=none;top=0;left=0;bottom=0;right=0;overflow=hidden;sketch=1;fontFamily=Comic Sans MS;fontSize=12;" vertex="1" parent="8Fdjfd8cLt4ZwxGpMuiX-535">
          <mxGeometry width="60" height="40" as="geometry">
            <mxRectangle width="60" height="40" as="alternateBounds" />
          </mxGeometry>
        </mxCell>
        <mxCell id="8Fdjfd8cLt4ZwxGpMuiX-537" value="5" style="shape=partialRectangle;html=1;whiteSpace=wrap;connectable=0;fillColor=none;top=0;left=0;bottom=0;right=0;overflow=hidden;sketch=1;fontFamily=Comic Sans MS;fontSize=12;" vertex="1" parent="8Fdjfd8cLt4ZwxGpMuiX-535">
          <mxGeometry x="60" width="60" height="40" as="geometry">
            <mxRectangle width="60" height="40" as="alternateBounds" />
          </mxGeometry>
        </mxCell>
        <mxCell id="8Fdjfd8cLt4ZwxGpMuiX-538" value="" style="shape=partialRectangle;html=1;whiteSpace=wrap;connectable=0;fillColor=none;top=0;left=0;bottom=0;right=0;overflow=hidden;pointerEvents=1;sketch=1;fontFamily=Comic Sans MS;fontSize=12;" vertex="1" parent="8Fdjfd8cLt4ZwxGpMuiX-535">
          <mxGeometry x="120" width="60" height="40" as="geometry">
            <mxRectangle width="60" height="40" as="alternateBounds" />
          </mxGeometry>
        </mxCell>
        <mxCell id="8Fdjfd8cLt4ZwxGpMuiX-539" value="" style="shape=tableRow;horizontal=0;startSize=0;swimlaneHead=0;swimlaneBody=0;top=0;left=0;bottom=0;right=0;collapsible=0;dropTarget=0;fillColor=none;points=[[0,0.5],[1,0.5]];portConstraint=eastwest;sketch=1;fontFamily=Comic Sans MS;fontSize=12;" vertex="1" parent="8Fdjfd8cLt4ZwxGpMuiX-518">
          <mxGeometry y="200" width="180" height="40" as="geometry" />
        </mxCell>
        <mxCell id="8Fdjfd8cLt4ZwxGpMuiX-540" value="Size" style="shape=partialRectangle;html=1;whiteSpace=wrap;connectable=0;fillColor=none;top=0;left=0;bottom=0;right=0;overflow=hidden;sketch=1;fontFamily=Comic Sans MS;fontSize=12;" vertex="1" parent="8Fdjfd8cLt4ZwxGpMuiX-539">
          <mxGeometry width="60" height="40" as="geometry">
            <mxRectangle width="60" height="40" as="alternateBounds" />
          </mxGeometry>
        </mxCell>
        <mxCell id="8Fdjfd8cLt4ZwxGpMuiX-541" value="3" style="shape=partialRectangle;html=1;whiteSpace=wrap;connectable=0;fillColor=none;top=0;left=0;bottom=0;right=0;overflow=hidden;sketch=1;fontFamily=Comic Sans MS;fontSize=12;" vertex="1" parent="8Fdjfd8cLt4ZwxGpMuiX-539">
          <mxGeometry x="60" width="60" height="40" as="geometry">
            <mxRectangle width="60" height="40" as="alternateBounds" />
          </mxGeometry>
        </mxCell>
        <mxCell id="8Fdjfd8cLt4ZwxGpMuiX-542" value="" style="shape=partialRectangle;html=1;whiteSpace=wrap;connectable=0;fillColor=none;top=0;left=0;bottom=0;right=0;overflow=hidden;pointerEvents=1;sketch=1;fontFamily=Comic Sans MS;fontSize=12;" vertex="1" parent="8Fdjfd8cLt4ZwxGpMuiX-539">
          <mxGeometry x="120" width="60" height="40" as="geometry">
            <mxRectangle width="60" height="40" as="alternateBounds" />
          </mxGeometry>
        </mxCell>
        <mxCell id="8Fdjfd8cLt4ZwxGpMuiX-543" value="L = max(table[s[r]], L)&lt;br&gt;Size = max(size, R-L+1)&lt;br&gt;table[s[r]] = r+1&lt;br&gt;r++" style="shape=document;whiteSpace=wrap;html=1;boundedLbl=1;sketch=1;fontFamily=Comic Sans MS;fontSize=12;" vertex="1" parent="1">
          <mxGeometry x="120" y="2400" width="160" height="90" as="geometry" />
        </mxCell>
        <mxCell id="8Fdjfd8cLt4ZwxGpMuiX-544" value="a" style="text;html=1;strokeColor=#d6b656;fillColor=#fff2cc;align=center;verticalAlign=middle;whiteSpace=wrap;rounded=0;sketch=1;fontFamily=Comic Sans MS;fontSize=18;" vertex="1" parent="1">
          <mxGeometry x="120" y="2930" width="40" height="40" as="geometry" />
        </mxCell>
        <mxCell id="8Fdjfd8cLt4ZwxGpMuiX-545" value="b" style="text;html=1;strokeColor=#d6b656;fillColor=#fff2cc;align=center;verticalAlign=middle;whiteSpace=wrap;rounded=0;sketch=1;fontFamily=Comic Sans MS;fontSize=18;" vertex="1" parent="1">
          <mxGeometry x="200" y="2930" width="40" height="40" as="geometry" />
        </mxCell>
        <mxCell id="8Fdjfd8cLt4ZwxGpMuiX-546" value="c" style="text;html=1;strokeColor=#d6b656;fillColor=#fff2cc;align=center;verticalAlign=middle;whiteSpace=wrap;rounded=0;sketch=1;fontFamily=Comic Sans MS;fontSize=18;" vertex="1" parent="1">
          <mxGeometry x="280" y="2930" width="40" height="40" as="geometry" />
        </mxCell>
        <mxCell id="8Fdjfd8cLt4ZwxGpMuiX-547" value="c" style="text;html=1;strokeColor=#d6b656;fillColor=#fff2cc;align=center;verticalAlign=middle;whiteSpace=wrap;rounded=0;sketch=1;fontFamily=Comic Sans MS;fontSize=18;" vertex="1" parent="1">
          <mxGeometry x="360" y="2930" width="40" height="40" as="geometry" />
        </mxCell>
        <mxCell id="8Fdjfd8cLt4ZwxGpMuiX-548" value="b" style="text;html=1;strokeColor=#d6b656;fillColor=#fff2cc;align=center;verticalAlign=middle;whiteSpace=wrap;rounded=0;sketch=1;fontFamily=Comic Sans MS;fontSize=18;" vertex="1" parent="1">
          <mxGeometry x="440" y="2930" width="40" height="40" as="geometry" />
        </mxCell>
        <mxCell id="8Fdjfd8cLt4ZwxGpMuiX-549" value="a" style="text;html=1;strokeColor=#d6b656;fillColor=#fff2cc;align=center;verticalAlign=middle;whiteSpace=wrap;rounded=0;sketch=1;fontFamily=Comic Sans MS;fontSize=18;" vertex="1" parent="1">
          <mxGeometry x="520" y="2930" width="40" height="40" as="geometry" />
        </mxCell>
        <mxCell id="8Fdjfd8cLt4ZwxGpMuiX-550" value="" style="shape=flexArrow;endArrow=classic;html=1;rounded=0;fontFamily=Comic Sans MS;fontSize=18;shadow=0;sketch=1;fillColor=#dae8fc;strokeColor=#6c8ebf;endWidth=11.875;endSize=5;" edge="1" parent="1">
          <mxGeometry width="50" height="50" relative="1" as="geometry">
            <mxPoint x="539.5" y="3030" as="sourcePoint" />
            <mxPoint x="539.5" y="2990" as="targetPoint" />
          </mxGeometry>
        </mxCell>
        <mxCell id="8Fdjfd8cLt4ZwxGpMuiX-551" value="R" style="edgeLabel;html=1;align=center;verticalAlign=middle;resizable=0;points=[];fontSize=12;fontFamily=Comic Sans MS;" vertex="1" connectable="0" parent="8Fdjfd8cLt4ZwxGpMuiX-550">
          <mxGeometry x="0.386" y="-1" relative="1" as="geometry">
            <mxPoint as="offset" />
          </mxGeometry>
        </mxCell>
        <mxCell id="8Fdjfd8cLt4ZwxGpMuiX-552" value="" style="shape=flexArrow;endArrow=classic;html=1;rounded=0;fontFamily=Comic Sans MS;fontSize=18;shadow=0;sketch=1;fillColor=#dae8fc;strokeColor=#6c8ebf;endWidth=11.875;endSize=5;" edge="1" parent="1">
          <mxGeometry width="50" height="50" relative="1" as="geometry">
            <mxPoint x="379.6899999999998" y="3030" as="sourcePoint" />
            <mxPoint x="379.6899999999998" y="2990" as="targetPoint" />
          </mxGeometry>
        </mxCell>
        <mxCell id="8Fdjfd8cLt4ZwxGpMuiX-553" value="L" style="edgeLabel;html=1;align=center;verticalAlign=middle;resizable=0;points=[];fontSize=12;fontFamily=Comic Sans MS;" vertex="1" connectable="0" parent="8Fdjfd8cLt4ZwxGpMuiX-552">
          <mxGeometry x="0.386" y="-1" relative="1" as="geometry">
            <mxPoint as="offset" />
          </mxGeometry>
        </mxCell>
        <mxCell id="8Fdjfd8cLt4ZwxGpMuiX-554" value="" style="shape=table;html=1;whiteSpace=wrap;startSize=0;container=1;collapsible=0;childLayout=tableLayout;sketch=1;fontFamily=Comic Sans MS;fontSize=12;" vertex="1" parent="1">
          <mxGeometry x="640" y="2850" width="180" height="240" as="geometry" />
        </mxCell>
        <mxCell id="8Fdjfd8cLt4ZwxGpMuiX-555" value="" style="shape=tableRow;horizontal=0;startSize=0;swimlaneHead=0;swimlaneBody=0;top=0;left=0;bottom=0;right=0;collapsible=0;dropTarget=0;fillColor=none;points=[[0,0.5],[1,0.5]];portConstraint=eastwest;sketch=1;fontFamily=Comic Sans MS;fontSize=12;" vertex="1" parent="8Fdjfd8cLt4ZwxGpMuiX-554">
          <mxGeometry width="180" height="40" as="geometry" />
        </mxCell>
        <mxCell id="8Fdjfd8cLt4ZwxGpMuiX-556" value="a" style="shape=partialRectangle;html=1;whiteSpace=wrap;connectable=0;fillColor=none;top=0;left=0;bottom=0;right=0;overflow=hidden;sketch=1;fontFamily=Comic Sans MS;fontSize=12;" vertex="1" parent="8Fdjfd8cLt4ZwxGpMuiX-555">
          <mxGeometry width="60" height="40" as="geometry">
            <mxRectangle width="60" height="40" as="alternateBounds" />
          </mxGeometry>
        </mxCell>
        <mxCell id="8Fdjfd8cLt4ZwxGpMuiX-557" value="1" style="shape=partialRectangle;html=1;whiteSpace=wrap;connectable=0;fillColor=none;top=0;left=0;bottom=0;right=0;overflow=hidden;sketch=1;fontFamily=Comic Sans MS;fontSize=12;" vertex="1" parent="8Fdjfd8cLt4ZwxGpMuiX-555">
          <mxGeometry x="60" width="60" height="40" as="geometry">
            <mxRectangle width="60" height="40" as="alternateBounds" />
          </mxGeometry>
        </mxCell>
        <mxCell id="8Fdjfd8cLt4ZwxGpMuiX-558" value="" style="shape=partialRectangle;html=1;whiteSpace=wrap;connectable=0;fillColor=none;top=0;left=0;bottom=0;right=0;overflow=hidden;sketch=1;fontFamily=Comic Sans MS;fontSize=12;" vertex="1" parent="8Fdjfd8cLt4ZwxGpMuiX-555">
          <mxGeometry x="120" width="60" height="40" as="geometry">
            <mxRectangle width="60" height="40" as="alternateBounds" />
          </mxGeometry>
        </mxCell>
        <mxCell id="8Fdjfd8cLt4ZwxGpMuiX-559" value="" style="shape=tableRow;horizontal=0;startSize=0;swimlaneHead=0;swimlaneBody=0;top=0;left=0;bottom=0;right=0;collapsible=0;dropTarget=0;fillColor=none;points=[[0,0.5],[1,0.5]];portConstraint=eastwest;sketch=1;fontFamily=Comic Sans MS;fontSize=12;" vertex="1" parent="8Fdjfd8cLt4ZwxGpMuiX-554">
          <mxGeometry y="40" width="180" height="40" as="geometry" />
        </mxCell>
        <mxCell id="8Fdjfd8cLt4ZwxGpMuiX-560" value="b" style="shape=partialRectangle;html=1;whiteSpace=wrap;connectable=0;fillColor=none;top=0;left=0;bottom=0;right=0;overflow=hidden;sketch=1;fontFamily=Comic Sans MS;fontSize=12;" vertex="1" parent="8Fdjfd8cLt4ZwxGpMuiX-559">
          <mxGeometry width="60" height="40" as="geometry">
            <mxRectangle width="60" height="40" as="alternateBounds" />
          </mxGeometry>
        </mxCell>
        <mxCell id="8Fdjfd8cLt4ZwxGpMuiX-561" value="5" style="shape=partialRectangle;html=1;whiteSpace=wrap;connectable=0;fillColor=none;top=0;left=0;bottom=0;right=0;overflow=hidden;sketch=1;fontFamily=Comic Sans MS;fontSize=12;" vertex="1" parent="8Fdjfd8cLt4ZwxGpMuiX-559">
          <mxGeometry x="60" width="60" height="40" as="geometry">
            <mxRectangle width="60" height="40" as="alternateBounds" />
          </mxGeometry>
        </mxCell>
        <mxCell id="8Fdjfd8cLt4ZwxGpMuiX-562" value="" style="shape=partialRectangle;html=1;whiteSpace=wrap;connectable=0;fillColor=none;top=0;left=0;bottom=0;right=0;overflow=hidden;sketch=1;fontFamily=Comic Sans MS;fontSize=12;" vertex="1" parent="8Fdjfd8cLt4ZwxGpMuiX-559">
          <mxGeometry x="120" width="60" height="40" as="geometry">
            <mxRectangle width="60" height="40" as="alternateBounds" />
          </mxGeometry>
        </mxCell>
        <mxCell id="8Fdjfd8cLt4ZwxGpMuiX-563" value="" style="shape=tableRow;horizontal=0;startSize=0;swimlaneHead=0;swimlaneBody=0;top=0;left=0;bottom=0;right=0;collapsible=0;dropTarget=0;fillColor=none;points=[[0,0.5],[1,0.5]];portConstraint=eastwest;sketch=1;fontFamily=Comic Sans MS;fontSize=12;" vertex="1" parent="8Fdjfd8cLt4ZwxGpMuiX-554">
          <mxGeometry y="80" width="180" height="40" as="geometry" />
        </mxCell>
        <mxCell id="8Fdjfd8cLt4ZwxGpMuiX-564" value="c" style="shape=partialRectangle;html=1;whiteSpace=wrap;connectable=0;fillColor=none;top=0;left=0;bottom=0;right=0;overflow=hidden;sketch=1;fontFamily=Comic Sans MS;fontSize=12;" vertex="1" parent="8Fdjfd8cLt4ZwxGpMuiX-563">
          <mxGeometry width="60" height="40" as="geometry">
            <mxRectangle width="60" height="40" as="alternateBounds" />
          </mxGeometry>
        </mxCell>
        <mxCell id="8Fdjfd8cLt4ZwxGpMuiX-565" value="4 -&amp;gt; 6" style="shape=partialRectangle;html=1;whiteSpace=wrap;connectable=0;fillColor=none;top=0;left=0;bottom=0;right=0;overflow=hidden;sketch=1;fontFamily=Comic Sans MS;fontSize=12;" vertex="1" parent="8Fdjfd8cLt4ZwxGpMuiX-563">
          <mxGeometry x="60" width="60" height="40" as="geometry">
            <mxRectangle width="60" height="40" as="alternateBounds" />
          </mxGeometry>
        </mxCell>
        <mxCell id="8Fdjfd8cLt4ZwxGpMuiX-566" value="" style="shape=partialRectangle;html=1;whiteSpace=wrap;connectable=0;fillColor=none;top=0;left=0;bottom=0;right=0;overflow=hidden;pointerEvents=1;sketch=1;fontFamily=Comic Sans MS;fontSize=12;" vertex="1" parent="8Fdjfd8cLt4ZwxGpMuiX-563">
          <mxGeometry x="120" width="60" height="40" as="geometry">
            <mxRectangle width="60" height="40" as="alternateBounds" />
          </mxGeometry>
        </mxCell>
        <mxCell id="8Fdjfd8cLt4ZwxGpMuiX-567" value="" style="shape=tableRow;horizontal=0;startSize=0;swimlaneHead=0;swimlaneBody=0;top=0;left=0;bottom=0;right=0;collapsible=0;dropTarget=0;fillColor=none;points=[[0,0.5],[1,0.5]];portConstraint=eastwest;sketch=1;fontFamily=Comic Sans MS;fontSize=12;" vertex="1" parent="8Fdjfd8cLt4ZwxGpMuiX-554">
          <mxGeometry y="120" width="180" height="40" as="geometry" />
        </mxCell>
        <mxCell id="8Fdjfd8cLt4ZwxGpMuiX-568" value="L" style="shape=partialRectangle;html=1;whiteSpace=wrap;connectable=0;fillColor=none;top=0;left=0;bottom=0;right=0;overflow=hidden;sketch=1;fontFamily=Comic Sans MS;fontSize=12;" vertex="1" parent="8Fdjfd8cLt4ZwxGpMuiX-567">
          <mxGeometry width="60" height="40" as="geometry">
            <mxRectangle width="60" height="40" as="alternateBounds" />
          </mxGeometry>
        </mxCell>
        <mxCell id="8Fdjfd8cLt4ZwxGpMuiX-569" value="3" style="shape=partialRectangle;html=1;whiteSpace=wrap;connectable=0;fillColor=none;top=0;left=0;bottom=0;right=0;overflow=hidden;sketch=1;fontFamily=Comic Sans MS;fontSize=12;" vertex="1" parent="8Fdjfd8cLt4ZwxGpMuiX-567">
          <mxGeometry x="60" width="60" height="40" as="geometry">
            <mxRectangle width="60" height="40" as="alternateBounds" />
          </mxGeometry>
        </mxCell>
        <mxCell id="8Fdjfd8cLt4ZwxGpMuiX-570" value="" style="shape=partialRectangle;html=1;whiteSpace=wrap;connectable=0;fillColor=none;top=0;left=0;bottom=0;right=0;overflow=hidden;pointerEvents=1;sketch=1;fontFamily=Comic Sans MS;fontSize=12;" vertex="1" parent="8Fdjfd8cLt4ZwxGpMuiX-567">
          <mxGeometry x="120" width="60" height="40" as="geometry">
            <mxRectangle width="60" height="40" as="alternateBounds" />
          </mxGeometry>
        </mxCell>
        <mxCell id="8Fdjfd8cLt4ZwxGpMuiX-571" value="" style="shape=tableRow;horizontal=0;startSize=0;swimlaneHead=0;swimlaneBody=0;top=0;left=0;bottom=0;right=0;collapsible=0;dropTarget=0;fillColor=none;points=[[0,0.5],[1,0.5]];portConstraint=eastwest;sketch=1;fontFamily=Comic Sans MS;fontSize=12;" vertex="1" parent="8Fdjfd8cLt4ZwxGpMuiX-554">
          <mxGeometry y="160" width="180" height="40" as="geometry" />
        </mxCell>
        <mxCell id="8Fdjfd8cLt4ZwxGpMuiX-572" value="R" style="shape=partialRectangle;html=1;whiteSpace=wrap;connectable=0;fillColor=none;top=0;left=0;bottom=0;right=0;overflow=hidden;sketch=1;fontFamily=Comic Sans MS;fontSize=12;" vertex="1" parent="8Fdjfd8cLt4ZwxGpMuiX-571">
          <mxGeometry width="60" height="40" as="geometry">
            <mxRectangle width="60" height="40" as="alternateBounds" />
          </mxGeometry>
        </mxCell>
        <mxCell id="8Fdjfd8cLt4ZwxGpMuiX-573" value="5" style="shape=partialRectangle;html=1;whiteSpace=wrap;connectable=0;fillColor=none;top=0;left=0;bottom=0;right=0;overflow=hidden;sketch=1;fontFamily=Comic Sans MS;fontSize=12;" vertex="1" parent="8Fdjfd8cLt4ZwxGpMuiX-571">
          <mxGeometry x="60" width="60" height="40" as="geometry">
            <mxRectangle width="60" height="40" as="alternateBounds" />
          </mxGeometry>
        </mxCell>
        <mxCell id="8Fdjfd8cLt4ZwxGpMuiX-574" value="" style="shape=partialRectangle;html=1;whiteSpace=wrap;connectable=0;fillColor=none;top=0;left=0;bottom=0;right=0;overflow=hidden;pointerEvents=1;sketch=1;fontFamily=Comic Sans MS;fontSize=12;" vertex="1" parent="8Fdjfd8cLt4ZwxGpMuiX-571">
          <mxGeometry x="120" width="60" height="40" as="geometry">
            <mxRectangle width="60" height="40" as="alternateBounds" />
          </mxGeometry>
        </mxCell>
        <mxCell id="8Fdjfd8cLt4ZwxGpMuiX-575" value="" style="shape=tableRow;horizontal=0;startSize=0;swimlaneHead=0;swimlaneBody=0;top=0;left=0;bottom=0;right=0;collapsible=0;dropTarget=0;fillColor=none;points=[[0,0.5],[1,0.5]];portConstraint=eastwest;sketch=1;fontFamily=Comic Sans MS;fontSize=12;" vertex="1" parent="8Fdjfd8cLt4ZwxGpMuiX-554">
          <mxGeometry y="200" width="180" height="40" as="geometry" />
        </mxCell>
        <mxCell id="8Fdjfd8cLt4ZwxGpMuiX-576" value="Size" style="shape=partialRectangle;html=1;whiteSpace=wrap;connectable=0;fillColor=none;top=0;left=0;bottom=0;right=0;overflow=hidden;sketch=1;fontFamily=Comic Sans MS;fontSize=12;" vertex="1" parent="8Fdjfd8cLt4ZwxGpMuiX-575">
          <mxGeometry width="60" height="40" as="geometry">
            <mxRectangle width="60" height="40" as="alternateBounds" />
          </mxGeometry>
        </mxCell>
        <mxCell id="8Fdjfd8cLt4ZwxGpMuiX-577" value="3" style="shape=partialRectangle;html=1;whiteSpace=wrap;connectable=0;fillColor=none;top=0;left=0;bottom=0;right=0;overflow=hidden;sketch=1;fontFamily=Comic Sans MS;fontSize=12;" vertex="1" parent="8Fdjfd8cLt4ZwxGpMuiX-575">
          <mxGeometry x="60" width="60" height="40" as="geometry">
            <mxRectangle width="60" height="40" as="alternateBounds" />
          </mxGeometry>
        </mxCell>
        <mxCell id="8Fdjfd8cLt4ZwxGpMuiX-578" value="" style="shape=partialRectangle;html=1;whiteSpace=wrap;connectable=0;fillColor=none;top=0;left=0;bottom=0;right=0;overflow=hidden;pointerEvents=1;sketch=1;fontFamily=Comic Sans MS;fontSize=12;" vertex="1" parent="8Fdjfd8cLt4ZwxGpMuiX-575">
          <mxGeometry x="120" width="60" height="40" as="geometry">
            <mxRectangle width="60" height="40" as="alternateBounds" />
          </mxGeometry>
        </mxCell>
        <mxCell id="8Fdjfd8cLt4ZwxGpMuiX-579" value="L = max(table[s[r]], L)&lt;br&gt;Size = max(size, R-L+1)&lt;br&gt;table[s[r]] = r+1&lt;br&gt;r++" style="shape=document;whiteSpace=wrap;html=1;boundedLbl=1;sketch=1;fontFamily=Comic Sans MS;fontSize=12;" vertex="1" parent="1">
          <mxGeometry x="120" y="2800" width="160" height="90" as="geometry" />
        </mxCell>
      </root>
    </mxGraphModel>
  </diagram>
</mxfile>
